<?xml version="1.0" encoding="UTF-8"?>
<!DOCTYPE svg PUBLIC "-//W3C//DTD SVG 1.1//EN" "http://www.w3.org/Graphics/SVG/1.1/DTD/svg11.dtd">
<svg xmlns="http://www.w3.org/2000/svg" version="1.1" width="1024px" height="1024px" style="shape-rendering:geometricPrecision; text-rendering:geometricPrecision; image-rendering:optimizeQuality; fill-rule:evenodd; clip-rule:evenodd" xmlns:xlink="http://www.w3.org/1999/xlink">
<g><path style="opacity:1" fill="#fefefe" d="M -0.5,-0.5 C 340.833,-0.5 682.167,-0.5 1023.5,-0.5C 1023.5,340.833 1023.5,682.167 1023.5,1023.5C 682.167,1023.5 340.833,1023.5 -0.5,1023.5C -0.5,682.167 -0.5,340.833 -0.5,-0.5 Z"/></g>
<g><path style="opacity:1" fill="#f88d83" d="M 869.5,408.5 C 868.67,418.659 868.17,428.992 868,439.5C 867.163,441.351 866.329,443.184 865.5,445C 863.837,445.265 862.337,444.765 861,443.5C 860.5,444 860,444.5 859.5,445C 860.833,445.667 862.167,446.333 863.5,447C 857.215,449.957 850.881,450.124 844.5,447.5C 840.608,448.855 840.941,449.689 845.5,450C 844.5,450.167 843.5,450.333 842.5,450.5C 829.68,449.215 817.013,449.215 804.5,450.5C 804.5,560.5 804.5,670.5 804.5,780.5C 822.17,780.333 839.836,780.5 857.5,781C 864.652,783.156 868.485,787.99 869,795.5C 869.667,809.5 869.667,823.5 869,837.5C 869.524,844.793 866.691,850.127 860.5,853.5C 628.854,854.496 397.188,854.829 165.5,854.5C 163.857,852.133 162.691,849.799 162,847.5C 159.301,850.264 157.634,849.597 157,845.5C 156.617,846.056 156.117,846.389 155.5,846.5C 154.361,828.877 154.194,811.21 155,793.5C 157.079,787.753 160.912,783.586 166.5,781C 183.83,780.5 201.163,780.333 218.5,780.5C 218.5,670.5 218.5,560.5 218.5,450.5C 202.985,450.256 187.485,450.59 172,451.5C 162.771,452.261 156.771,448.261 154,439.5C 153.083,427.109 153.416,414.776 155,402.5C 156.586,399.659 158.42,396.993 160.5,394.5C 269.695,318.139 379.029,241.972 488.5,166C 499.313,158.689 510.98,157.023 523.5,161C 636.176,238.337 748.843,315.67 861.5,393C 866.653,396.96 869.32,402.127 869.5,408.5 Z"/></g>
<g><path style="opacity:1" fill="#fefefe" d="M 652.5,687.5 C 629.167,687.5 605.833,687.5 582.5,687.5C 582.667,637.166 582.5,586.832 582,536.5C 579.807,540.886 577.64,545.22 575.5,549.5C 555.018,586.465 534.018,623.132 512.5,659.5C 488.311,618.46 465.144,576.793 443,534.5C 442.5,585.499 442.333,636.499 442.5,687.5C 418.833,687.5 395.167,687.5 371.5,687.5C 371.5,600.167 371.5,512.833 371.5,425.5C 397.509,425.167 423.509,425.5 449.5,426.5C 469.319,464.15 490.652,500.817 513.5,536.5C 519,528.167 524.5,519.833 530,511.5C 546.547,483.166 562.714,454.666 578.5,426C 603.164,425.5 627.831,425.333 652.5,425.5C 652.5,512.833 652.5,600.167 652.5,687.5 Z"/></g>
<g><path style="opacity:1" fill="#f97c6e" d="M 869.5,408.5 C 869.667,419.505 869.5,430.505 869,441.5C 867.939,444.562 866.106,447.062 863.5,449C 854.255,450.542 844.922,451.375 835.5,451.5C 825.175,450.867 814.842,450.534 804.5,450.5C 817.013,449.215 829.68,449.215 842.5,450.5C 843.5,450.333 844.5,450.167 845.5,450C 840.941,449.689 840.608,448.855 844.5,447.5C 850.881,450.124 857.215,449.957 863.5,447C 862.167,446.333 860.833,445.667 859.5,445C 860,444.5 860.5,444 861,443.5C 862.337,444.765 863.837,445.265 865.5,445C 866.329,443.184 867.163,441.351 868,439.5C 868.17,428.992 868.67,418.659 869.5,408.5 Z"/></g>
<g><path style="opacity:1" fill="#f87b6f" d="M 652.5,687.5 C 628.764,688.831 604.931,688.831 581,687.5C 580.833,641.163 580.333,594.83 579.5,548.5C 578.015,547.567 576.682,547.9 575.5,549.5C 577.64,545.22 579.807,540.886 582,536.5C 582.5,586.832 582.667,637.166 582.5,687.5C 605.833,687.5 629.167,687.5 652.5,687.5 Z"/></g>
<g><path style="opacity:1" fill="#f88378" d="M 860.5,853.5 C 859.4,854.558 858.066,855.392 856.5,856C 626.167,856.667 395.833,856.667 165.5,856C 161.032,854.032 157.699,850.866 155.5,846.5C 156.117,846.389 156.617,846.056 157,845.5C 157.634,849.597 159.301,850.264 162,847.5C 162.691,849.799 163.857,852.133 165.5,854.5C 397.188,854.829 628.854,854.496 860.5,853.5 Z"/></g>
</svg>
