<?xml version="1.0" encoding="UTF-8"?>
<!DOCTYPE svg PUBLIC "-//W3C//DTD SVG 1.1//EN" "http://www.w3.org/Graphics/SVG/1.1/DTD/svg11.dtd">
<svg xmlns="http://www.w3.org/2000/svg" version="1.1" width="1024px" height="1024px" style="shape-rendering:geometricPrecision; text-rendering:geometricPrecision; image-rendering:optimizeQuality; fill-rule:evenodd; clip-rule:evenodd" xmlns:xlink="http://www.w3.org/1999/xlink">
<defs><clipPath id="roundedCorners"><rect x="0" y="0" width="1024" height="1024" rx="150" ry="150"/></clipPath></defs>
<g clip-path="url(#roundedCorners)">
<rect x="0" y="0" width="1024" height="1024" rx="150" ry="150" style="opacity:1" fill="#feacac"/>
<g><path style="opacity:1" fill="#fefafa" d="M 372.5,234.5 C 464.501,234.333 556.501,234.5 648.5,235C 712.843,237.885 756.01,269.385 778,329.5C 781.42,340.93 783.42,352.597 784,364.5C 784.667,463.5 784.667,562.5 784,661.5C 779.634,712.455 755.134,749.955 710.5,774C 693.325,781.794 675.325,786.461 656.5,788C 559.833,788.667 463.167,788.667 366.5,788C 313.23,782.697 274.73,756.197 251,708.5C 245.458,694.999 241.791,680.999 240,666.5C 239.333,563.167 239.333,459.833 240,356.5C 249.103,294.468 283.936,255.302 344.5,239C 353.909,237.063 363.242,235.563 372.5,234.5 Z"/></g>
<g><path style="opacity:1" fill="#fe9c99" d="M 661.5,493.5 C 661.082,492.778 660.416,492.278 659.5,492C 652.918,491.19 646.418,491.357 640,492.5C 639.169,538.002 639.335,583.335 640.5,628.5C 648.5,629.167 656.5,629.833 664.5,630.5C 656.493,630.334 648.493,630.5 640.5,631C 649.167,631.333 657.833,631.667 666.5,632C 667.482,639.747 667.815,647.58 667.5,655.5C 564.694,656.16 462.027,656.827 359.5,657.5C 357.983,657.489 356.816,656.823 356,655.5C 355.333,647.833 355.333,640.167 356,632.5C 356.903,631.299 358.069,630.465 359.5,630C 367.493,629.5 375.493,629.334 383.5,629.5C 383.5,584.167 383.5,538.833 383.5,493.5C 374.827,493.666 366.16,493.5 357.5,493C 357,492.5 356.5,492 356,491.5C 355.333,485.167 355.333,478.833 356,472.5C 405.5,435 455,397.5 504.5,360C 510.089,356.466 515.422,356.799 520.5,361C 569.667,398.167 618.833,435.333 668,472.5C 668.667,478.833 668.667,485.167 668,491.5C 666.211,493.229 664.044,493.896 661.5,493.5 Z"/></g>
<g><path style="opacity:1" fill="#fe8683" d="M 486.5,480.5 C 485.163,479.685 484.163,478.518 483.5,477C 474.173,476.5 464.839,476.334 455.5,476.5C 454.667,514.998 454.167,553.665 454,592.5C 453.167,553.496 453.333,514.496 454.5,475.5C 464.119,474.359 473.786,474.193 483.5,475C 485.16,476.488 486.16,478.321 486.5,480.5 Z"/></g>
<g><path style="opacity:1" fill="#fefafa" d="M 455.5,476.5 C 464.839,476.334 474.173,476.5 483.5,477C 484.163,478.518 485.163,479.685 486.5,480.5C 494.307,494.775 502.64,508.775 511.5,522.5C 521.527,507.624 531.194,492.457 540.5,477C 549.827,476.5 559.161,476.334 568.5,476.5C 568.832,515.337 568.499,554.004 567.5,592.5C 558.5,592.5 549.5,592.5 540.5,592.5C 540.667,571.497 540.5,550.497 540,529.5C 537.843,531.817 536.343,534.484 535.5,537.5C 527.192,549.431 519.358,561.764 512,574.5C 502.416,559.668 493.083,544.668 484,529.5C 483.5,550.497 483.333,571.497 483.5,592.5C 474.167,592.5 464.833,592.5 455.5,592.5C 455.5,553.833 455.5,515.167 455.5,476.5 Z"/></g>
<g><path style="opacity:1" fill="#ff908c" d="M 567.5,592.5 C 558.098,593.828 548.598,593.828 539,592.5C 538.667,573.167 538.333,553.833 538,534.5C 537.623,535.942 536.79,536.942 535.5,537.5C 536.343,534.484 537.843,531.817 540,529.5C 540.5,550.497 540.667,571.497 540.5,592.5C 549.5,592.5 558.5,592.5 567.5,592.5 Z"/></g>
<g><path style="opacity:1" fill="#ff8481" d="M 661.5,493.5 C 654.5,493.5 647.5,493.5 640.5,493.5C 640.5,538.5 640.5,583.5 640.5,628.5C 639.335,583.335 639.169,538.002 640,492.5C 646.418,491.357 652.918,491.19 659.5,492C 660.416,492.278 661.082,492.778 661.5,493.5 Z"/></g>
<g><path style="opacity:1" fill="#fe8380" d="M 664.5,630.5 C 665.822,630.33 666.989,630.663 668,631.5C 668.816,640.079 668.649,648.579 667.5,657C 564.834,657.5 462.167,657.667 359.5,657.5C 462.027,656.827 564.694,656.16 667.5,655.5C 667.815,647.58 667.482,639.747 666.5,632C 657.833,631.667 649.167,631.333 640.5,631C 648.493,630.5 656.493,630.334 664.5,630.5 Z"/></g>
<g><path style="opacity:1" fill="#feafb0" d="M 1023.5,850.5 C 1023.5,908.167 1023.5,965.833 1023.5,1023.5C 682.167,1023.5 340.833,1023.5 -0.5,1023.5C -0.5,956.833 -0.5,890.167 -0.5,823.5C 0.458367,823.953 1.2917,824.619 2,825.5C 3.96083,820.703 6.46083,820.537 9.5,825C 8.38486,826.393 7.88486,827.893 8,829.5C 8.66667,828.167 9.33333,828.167 10,829.5C 11.4213,823.965 13.9213,823.298 17.5,827.5C 19.5739,824.863 21.5739,824.53 23.5,826.5C 24.1667,825.833 24.8333,825.167 25.5,824.5C 26.2766,826.781 27.2766,828.948 28.5,831C 25.8817,832.974 26.0483,834.807 29,836.5C 29.7175,835.549 30.5509,835.383 31.5,836C 30.3595,836.741 30.3595,837.575 31.5,838.5C 32.6651,839.584 33.9984,840.417 35.5,841C 33.7874,843.419 33.1207,845.919 33.5,848.5C 35.0294,850.188 36.8627,851.521 39,852.5C 39.4922,851.451 39.3256,850.451 38.5,849.5C 39.6034,849.002 40.6034,848.669 41.5,848.5C 38.3121,847.49 36.4787,845.49 36,842.5C 37.3946,843.815 38.3946,843.481 39,841.5C 39.3333,842.167 39.6667,842.833 40,843.5C 41.4216,841.362 43.255,840.195 45.5,840C 44.3044,840.654 44.3044,841.154 45.5,841.5C 46.4776,841.023 47.3109,840.357 48,839.5C 48.6172,840.449 48.4506,841.282 47.5,842C 49.1667,842.333 50.8333,842.667 52.5,843C 50.649,844.674 48.9824,845.841 47.5,846.5C 48.376,847.251 49.376,847.751 50.5,848C 47.9454,849.444 45.2787,850.611 42.5,851.5C 43.2824,853.329 42.6157,854.829 40.5,856C 41.8333,856.667 41.8333,857.333 40.5,858C 44.4659,859.612 44.4659,861.279 40.5,863C 43.1518,864.065 44.9852,865.898 46,868.5C 46.3333,866.833 46.6667,865.167 47,863.5C 47.7175,862.549 48.5509,862.383 49.5,863C 48.6433,863.689 47.9767,864.522 47.5,865.5C 47.5664,868.034 47.5664,870.534 47.5,873C 46.8333,873.333 46.1667,873.667 45.5,874C 47.7739,873.613 49.9405,873.446 52,873.5C 52.6639,878.116 54.6639,878.449 58,874.5C 58.8525,876.125 59.8525,876.458 61,875.5C 61.2735,877.329 62.1068,878.829 63.5,880C 63.1667,880.333 62.8333,880.667 62.5,881C 67.2586,883.074 68.2586,881.908 65.5,877.5C 67.5776,875.61 68.9109,873.276 69.5,870.5C 67.8624,869.295 67.5291,867.962 68.5,866.5C 68,865.5 67.5,864.5 67,863.5C 66.0862,864.654 65.2529,864.487 64.5,863C 67.6967,862.013 70.5301,862.513 73,864.5C 73.957,862.291 75.1236,862.457 76.5,865C 75.3279,865.419 74.3279,866.085 73.5,867C 74.5521,868.119 75.7188,868.619 77,868.5C 77.6667,867.833 78.3333,867.167 79,866.5C 79.2022,868.256 79.7022,869.922 80.5,871.5C 82.1572,868.689 85.1572,867.189 89.5,867C 88.062,866.781 86.7287,866.281 85.5,865.5C 85.7093,864.914 86.0426,864.414 86.5,864C 88.3638,862.594 90.1971,862.094 92,862.5C 93.2547,863.211 94.4214,864.044 95.5,865C 94.7203,866.073 94.887,867.24 96,868.5C 97.6095,869.147 99.1095,869.98 100.5,871C 98.7536,871.471 97.087,872.138 95.5,873C 96.7839,873.684 97.9505,873.517 99,872.5C 102.361,875.383 105.195,878.049 107.5,880.5C 108.03,879.244 108.03,877.744 107.5,876C 108.416,875.626 109.25,875.126 110,874.5C 111,875.833 112,875.833 113,874.5C 114.618,874.889 115.785,876.222 116.5,878.5C 117.111,876.693 116.444,875.027 114.5,873.5C 114.808,872.692 115.308,872.025 116,871.5C 116.368,872.91 117.201,873.91 118.5,874.5C 121.532,871.959 124.532,871.626 127.5,873.5C 128.167,872.5 128.833,871.5 129.5,870.5C 130.711,871.274 130.711,872.107 129.5,873C 131.061,873.318 132.228,874.151 133,875.5C 133.129,872.997 134.129,870.997 136,869.5C 137.11,871.037 138.61,871.703 140.5,871.5C 140.343,870.127 140.51,868.793 141,867.5C 141.953,869.455 143.287,871.122 145,872.5C 145.317,870.699 145.984,870.366 147,871.5C 147.71,870.027 148.876,869.36 150.5,869.5C 150.36,871.124 151.027,872.29 152.5,873C 152.167,873.333 151.833,873.667 151.5,874C 153.163,874.265 154.663,873.765 156,872.5C 156.889,876.112 159.055,878.612 162.5,880C 162.167,880.333 161.833,880.667 161.5,881C 164.407,883.361 166.574,882.861 168,879.5C 171.772,882.469 175.105,882.135 178,878.5C 180.569,879.2 182.735,880.533 184.5,882.5C 184.354,881.508 184.687,880.342 185.5,879C 184.962,876.898 183.962,876.065 182.5,876.5C 183.875,873.453 186.208,872.12 189.5,872.5C 189.264,868.566 190.597,867.399 193.5,869C 189.905,870.732 189.738,872.898 193,875.5C 195,873.5 197,871.5 199,869.5C 199.414,869.957 199.914,870.291 200.5,870.5C 201.292,872.929 201.292,875.095 200.5,877C 199.167,877.667 198.167,878.667 197.5,880C 199.604,882.238 201.938,883.238 204.5,883C 203.764,886.199 204.597,886.365 207,883.5C 207.49,884.793 207.657,886.127 207.5,887.5C 208.552,887.649 209.552,887.483 210.5,887C 210.644,884.287 210.477,881.454 210,878.5C 211.016,879.634 211.683,879.301 212,877.5C 212.556,879.595 213.056,879.762 213.5,878C 212.201,876.674 210.868,875.34 209.5,874C 210.449,873.383 211.282,873.549 212,874.5C 212.667,873.833 213.333,873.167 214,872.5C 216.928,875.15 220.094,876.483 223.5,876.5C 221.659,877.23 219.825,877.897 218,878.5C 217.586,878.043 217.086,877.709 216.5,877.5C 214.83,880.413 213.996,883.08 214,885.5C 217.027,883.816 219.027,881.816 220,879.5C 221.727,879.646 221.894,880.313 220.5,881.5C 221.376,882.251 222.376,882.751 223.5,883C 220.882,884.974 221.048,886.807 224,888.5C 225.29,886.208 226.957,884.208 229,882.5C 229.914,886.185 230.581,885.852 231,881.5C 231.667,882.833 232.333,884.167 233,885.5C 233.914,884.346 234.747,884.513 235.5,886C 233.919,886.707 232.419,887.54 231,888.5C 230.879,890.727 230.046,892.56 228.5,894C 229.536,895.617 230.703,895.784 232,894.5C 233.165,898.932 234.665,899.265 236.5,895.5C 238.735,896.752 241.069,897.252 243.5,897C 242.833,896.667 242.167,896.333 241.5,896C 242.579,895.044 243.745,894.211 245,893.5C 249.655,896.756 251.822,895.756 251.5,890.5C 249.837,894.335 249.337,894.001 250,889.5C 251.333,889.5 252.667,889.5 254,889.5C 254.333,888.833 254.667,888.167 255,887.5C 256.707,888.944 258.54,890.277 260.5,891.5C 262.48,890.617 264.48,890.783 266.5,892C 268.368,894.828 270.534,897.328 273,899.5C 273.585,897.871 274.419,896.371 275.5,895C 273.192,891.875 270.858,888.708 268.5,885.5C 270.621,885.46 272.621,884.96 274.5,884C 274.484,879.614 275.817,879.448 278.5,883.5C 278.154,884.696 277.654,884.696 277,883.5C 274.587,888.663 276.087,892.996 281.5,896.5C 283.64,895.527 285.307,894.027 286.5,892C 288.18,891.966 289.68,891.799 291,891.5C 292.487,892.253 292.654,893.086 291.5,894C 292.5,894.333 293.5,894.667 294.5,895C 294.167,895.333 293.833,895.667 293.5,896C 294.667,896.5 295.5,897.333 296,898.5C 297.183,897.269 298.349,897.269 299.5,898.5C 298.081,900.127 298.414,900.627 300.5,900C 301.833,899.333 301.833,898.667 300.5,898C 301,897.833 301.5,897.667 302,897.5C 305.629,899.35 307.629,902.35 308,906.5C 309.749,901.565 312.415,897.232 316,893.5C 317.067,894.191 318.234,894.691 319.5,895C 318.283,896.648 317.45,898.481 317,900.5C 316.396,898.314 315.23,898.148 313.5,900C 310.576,903.199 311.076,905.366 315,906.5C 315.875,904.487 317.209,904.487 319,906.5C 323.475,904.061 327.475,904.728 331,908.5C 331.725,907.941 332.558,907.608 333.5,907.5C 335.477,908.46 337.477,909.46 339.5,910.5C 340.5,910 341.5,909.5 342.5,909C 340.084,906.215 337.418,904.548 334.5,904C 335.01,902.174 335.844,902.007 337,903.5C 339.096,902.285 338.929,901.451 336.5,901C 337.974,899.684 339.641,898.684 341.5,898C 336.216,896.622 336.216,895.289 341.5,894C 341.5,892.667 341.5,891.333 341.5,890C 343.822,890.131 345.988,890.965 348,892.5C 348.617,891.551 348.451,890.718 347.5,890C 349.869,889.464 351.869,888.297 353.5,886.5C 353.833,886.667 354.167,886.833 354.5,887C 350.871,889.76 351.038,891.594 355,892.5C 356.385,891.449 357.385,890.116 358,888.5C 358.887,891.708 360.553,891.708 363,888.5C 363.456,887.256 362.956,886.423 361.5,886C 362.667,885.5 363.5,884.667 364,883.5C 364.667,884.833 365.333,884.833 366,883.5C 366.49,884.793 366.657,886.127 366.5,887.5C 370.599,887.684 371.599,889.184 369.5,892C 370.5,892.333 371.5,892.667 372.5,893C 368.352,893.458 367.519,895.291 370,898.5C 370.483,897.552 370.649,896.552 370.5,895.5C 372.143,895.52 373.476,894.853 374.5,893.5C 377.123,895.389 379.623,897.389 382,899.5C 384.668,898.33 387.002,896.663 389,894.5C 389.605,896.481 390.605,896.815 392,895.5C 393.826,897.074 395.993,897.907 398.5,898C 395.972,898.669 395.972,899.502 398.5,900.5C 399.167,899.5 399.833,898.5 400.5,897.5C 402.5,900.833 404.5,904.167 406.5,907.5C 406.476,905.716 406.976,903.716 408,901.5C 408.333,901.833 408.667,902.167 409,902.5C 410.667,901.5 412,900.167 413,898.5C 415.185,900.415 417.685,900.582 420.5,899C 417.712,897.708 415.378,895.874 413.5,893.5C 413.846,892.304 414.346,892.304 415,893.5C 415.617,892.551 415.451,891.718 414.5,891C 416,888.833 417.167,889 418,891.5C 418.591,888.855 419.925,888.189 422,889.5C 423.225,889.138 424.391,888.638 425.5,888C 425.167,887.667 424.833,887.333 424.5,887C 425.784,886.316 426.951,886.483 428,887.5C 428.333,886.833 428.667,886.167 429,885.5C 429.034,887.18 429.201,888.68 429.5,890C 428.572,890.388 427.905,891.055 427.5,892C 428.707,893.3 429.374,894.8 429.5,896.5C 426.001,896.259 425.668,897.092 428.5,899C 432.153,901.205 435.486,903.038 438.5,904.5C 436.972,905.861 435.305,907.028 433.5,908C 433.833,908.333 434.167,908.667 434.5,909C 431.211,910.959 430.877,913.125 433.5,915.5C 433.833,914.833 434.167,914.167 434.5,913.5C 435.967,913.723 437.467,914.056 439,914.5C 439.953,912.408 441.286,912.075 443,913.5C 444,912.833 445,912.167 446,911.5C 447.907,911.421 449.907,911.754 452,912.5C 452.167,912.167 452.333,911.833 452.5,911.5C 448.766,910.272 448.599,908.605 452,906.5C 453.119,907.552 453.619,908.719 453.5,910C 455.134,910.494 456.801,910.66 458.5,910.5C 458.351,909.448 458.517,908.448 459,907.5C 459.914,908.654 460.747,908.487 461.5,907C 460.366,905.984 460.699,905.317 462.5,905C 460.741,903.992 459.574,902.492 459,900.5C 458.751,901.624 458.251,902.624 457.5,903.5C 454.824,903.509 452.158,903.509 449.5,903.5C 450.026,901.77 451.026,900.436 452.5,899.5C 454.005,902.131 454.671,901.797 454.5,898.5C 458.182,899.275 460.682,897.941 462,894.5C 462.196,896.286 463.029,897.619 464.5,898.5C 466.642,897.399 468.808,896.399 471,895.5C 472.255,896.211 473.421,897.044 474.5,898C 473.167,899.333 473.167,900.667 474.5,902C 470.53,904.975 470.863,906.308 475.5,906C 474.476,907.367 474.976,908.2 477,908.5C 478.856,907.264 480.689,907.264 482.5,908.5C 483.845,907.653 484.845,906.487 485.5,905C 484.167,903.667 484.167,902.333 485.5,901C 484.258,900.689 483.258,901.189 482.5,902.5C 481.315,901.147 479.981,899.98 478.5,899C 482.361,896.694 482.361,894.527 478.5,892.5C 478.167,893.167 477.833,893.833 477.5,894.5C 475.198,893.001 475.531,891.668 478.5,890.5C 479.425,891.641 480.259,891.641 481,890.5C 481.988,894.732 484.155,898.232 487.5,901C 488.079,902.425 488.079,904.092 487.5,906C 489.113,906.089 490.28,905.255 491,903.5C 492.57,904.614 493.903,905.947 495,907.5C 495.308,906.692 495.808,906.025 496.5,905.5C 497.736,906.246 499.07,906.579 500.5,906.5C 500.35,902.839 501.85,901.839 505,903.5C 505.333,902.5 505.667,901.5 506,900.5C 507.098,901.967 508.598,902.801 510.5,903C 509.742,904.364 510.242,905.531 512,906.5C 513.419,905.54 514.919,904.707 516.5,904C 515.377,902.956 514.044,902.29 512.5,902C 512.957,901.586 513.291,901.086 513.5,900.5C 511.024,899.191 509.024,897.358 507.5,895C 509.387,894.837 510.887,895.671 512,897.5C 513.563,894.956 515.063,894.956 516.5,897.5C 517.086,897.291 517.586,896.957 518,896.5C 519.686,901.426 522.52,902.426 526.5,899.5C 527.333,900.5 528.167,901.5 529,902.5C 530.333,895.833 531.667,895.833 533,902.5C 534.145,900.749 534.645,898.916 534.5,897C 535.996,896.493 537.163,896.993 538,898.5C 538.333,898.167 538.667,897.833 539,897.5C 539.681,899.895 540.515,902.228 541.5,904.5C 544.615,906.096 547.115,905.43 549,902.5C 549.772,902.645 550.439,902.978 551,903.5C 552.767,902.183 554.101,900.516 555,898.5C 555.965,900.26 557.132,900.594 558.5,899.5C 557.731,897.263 556.564,895.263 555,893.5C 554.495,890.486 555.328,889.986 557.5,892C 557.043,892.414 556.709,892.914 556.5,893.5C 557.914,894.624 559.414,895.624 561,896.5C 561.837,894.993 563.004,894.493 564.5,895C 563.687,896.314 562.687,897.481 561.5,898.5C 561.846,899.696 562.346,899.696 563,898.5C 563.47,900.774 564.47,902.774 566,904.5C 566.833,903 568,901.833 569.5,901C 568.289,899.156 566.956,898.322 565.5,898.5C 565.864,896.267 566.864,894.434 568.5,893C 567.97,891.256 567.97,889.756 568.5,888.5C 571.431,889.273 574.264,890.273 577,891.5C 577.333,891.167 577.667,890.833 578,890.5C 579.651,892.402 579.984,894.402 579,896.5C 581.208,897.445 583.708,897.445 586.5,896.5C 587.731,897.651 587.731,898.817 586.5,900C 589.383,901.751 591.716,901.418 593.5,899C 593.167,898.667 592.833,898.333 592.5,898C 594.996,896.92 597.33,895.586 599.5,894C 598.72,892.927 598.887,891.76 600,890.5C 600.483,891.448 600.649,892.448 600.5,893.5C 601.552,893.351 602.552,893.517 603.5,894C 603.75,895.571 603.083,897.071 601.5,898.5C 603.647,900.839 606.147,902.839 609,904.5C 614.232,900.871 615.566,901.871 613,907.5C 612.667,907.167 612.333,906.833 612,906.5C 610.328,907.502 609.162,908.668 608.5,910C 610.301,910.317 610.634,910.984 609.5,912C 610.572,913.284 611.905,913.617 613.5,913C 613.335,914.117 613.002,915.284 612.5,916.5C 613.651,917.731 614.817,917.731 616,916.5C 616.308,917.308 616.808,917.975 617.5,918.5C 619.332,917.752 620.999,916.752 622.5,915.5C 622.277,914.033 621.944,912.533 621.5,911C 626.137,908.762 626.137,906.095 621.5,903C 622.716,901.26 624.382,900.26 626.5,900C 624.114,899.716 623.448,898.716 624.5,897C 621.003,893.902 620.837,890.735 624,887.5C 627.082,890.197 629.915,889.864 632.5,886.5C 632.833,886.833 633.167,887.167 633.5,887.5C 632.833,888.5 632.167,889.5 631.5,890.5C 633.203,891.89 633.87,893.39 633.5,895C 635.112,895.72 636.612,895.554 638,894.5C 638.333,895.167 638.667,895.833 639,896.5C 642.738,893.817 644.905,894.484 645.5,898.5C 644.624,899.251 643.624,899.751 642.5,900C 644.543,900.93 646.376,901.43 648,901.5C 648.667,900.833 649.333,900.167 650,899.5C 652.044,901.584 654.211,903.584 656.5,905.5C 657.425,904.359 658.259,904.359 659,905.5C 660.507,904.495 661.673,903.162 662.5,901.5C 664.535,902.041 666.535,902.708 668.5,903.5C 667.975,904.192 667.308,904.692 666.5,905C 667.667,905.5 668.5,906.333 669,907.5C 669.914,906.346 670.747,906.513 671.5,908C 669.205,908.984 669.539,909.817 672.5,910.5C 672.833,910.333 673.167,910.167 673.5,910C 671.303,907.352 671.303,904.852 673.5,902.5C 673.167,901.833 672.833,901.167 672.5,900.5C 674.223,898.132 674.89,895.466 674.5,892.5C 675.552,892.351 676.552,892.517 677.5,893C 678.333,894.5 679.5,895.667 681,896.5C 681.333,895.833 681.667,895.167 682,894.5C 683.975,895.478 685.642,896.811 687,898.5C 690.265,895.786 691.599,896.453 691,900.5C 692.506,903.474 694.172,903.807 696,901.5C 696.308,902.308 696.808,902.975 697.5,903.5C 700.092,902.196 701.925,900.196 703,897.5C 703.423,898.956 704.256,899.456 705.5,899C 704.167,898 704.167,897 705.5,896C 701.973,893.697 701.64,891.03 704.5,888C 702.986,886.561 702.653,885.061 703.5,883.5C 704.167,884.5 704.833,885.5 705.5,886.5C 707.457,884.699 709.791,883.366 712.5,882.5C 713.167,884.167 713.833,885.833 714.5,887.5C 717.028,886.483 717.028,885.316 714.5,884C 716.991,883.374 716.991,882.541 714.5,881.5C 716.466,880.628 718.466,880.795 720.5,882C 716.5,882.667 716.5,883.333 720.5,884C 719.5,884.333 718.5,884.667 717.5,885C 718.227,886.399 718.727,887.899 719,889.5C 720.309,887.109 721.309,887.109 722,889.5C 723.333,888.833 724.333,887.833 725,886.5C 725.111,891.379 726.278,891.712 728.5,887.5C 730.35,888.242 731.016,889.242 730.5,890.5C 731.354,889.478 732.354,888.645 733.5,888C 732.376,887.751 731.376,887.251 730.5,886.5C 731.685,885.147 733.019,883.98 734.5,883C 732.729,882.465 732.396,881.631 733.5,880.5C 734.086,880.709 734.586,881.043 735,881.5C 735.333,883.833 735.667,886.167 736,888.5C 737.183,887.269 738.349,887.269 739.5,888.5C 739.154,889.696 738.654,889.696 738,888.5C 737.045,890.949 735.545,892.949 733.5,894.5C 736.263,895.104 738.597,896.438 740.5,898.5C 741.833,900.167 741.833,901.833 740.5,903.5C 740.808,904.308 741.308,904.975 742,905.5C 742.748,903.668 743.748,902.001 745,900.5C 745.667,904.5 746.333,904.5 747,900.5C 748.281,900.619 749.448,900.119 750.5,899C 751.054,896.388 750.387,893.888 748.5,891.5C 749.76,890.618 750.926,889.618 752,888.5C 752.483,889.448 752.649,890.448 752.5,891.5C 754.451,891.227 755.951,891.893 757,893.5C 758.066,891.901 759.566,890.901 761.5,890.5C 762.521,889.998 762.688,889.332 762,888.5C 761.333,889.833 760.667,889.833 760,888.5C 759.683,890.301 759.016,890.634 758,889.5C 757.333,888.5 757.333,887.5 758,886.5C 760.401,887.602 762.901,887.769 765.5,887C 763.842,886.275 763.342,885.108 764,883.5C 765.648,884.717 767.481,885.55 769.5,886C 768.747,887.487 767.914,887.654 767,886.5C 766.667,887.5 766.333,888.5 766,889.5C 765.107,888.289 764.274,888.289 763.5,889.5C 765.109,890.326 766.776,891.326 768.5,892.5C 763.289,895.269 763.289,898.102 768.5,901C 766.099,901.805 766.266,902.638 769,903.5C 770.419,902.54 771.919,901.707 773.5,901C 771.382,900.74 769.716,899.74 768.5,898C 771.277,895.965 772.444,893.465 772,890.5C 772.914,891.654 773.747,891.487 774.5,890C 774.167,889.667 773.833,889.333 773.5,889C 775.574,889.227 777.574,889.061 779.5,888.5C 780.298,886.922 780.798,885.256 781,883.5C 782,884.833 783,884.833 784,883.5C 784.308,884.308 784.808,884.975 785.5,885.5C 786.5,884.833 787.5,884.167 788.5,883.5C 793.433,884.519 793.766,883.519 789.5,880.5C 792.419,879.143 793.919,876.81 794,873.5C 794.583,875.002 795.416,876.335 796.5,877.5C 797.192,876.975 797.692,876.308 798,875.5C 798.413,878.232 799.08,880.899 800,883.5C 800.333,882.833 800.667,882.167 801,881.5C 802.067,883.283 803.567,883.783 805.5,883C 805.167,882.667 804.833,882.333 804.5,882C 807.632,878.327 809.298,878.993 809.5,884C 809.167,884.333 808.833,884.667 808.5,885C 809.448,885.483 810.448,885.649 811.5,885.5C 811.773,883.549 811.107,882.049 809.5,881C 810.944,879.293 812.277,877.46 813.5,875.5C 813.291,874.914 812.957,874.414 812.5,874C 813.766,873.691 814.933,873.191 816,872.5C 816.707,874.081 817.54,875.581 818.5,877C 816.915,877.085 815.582,877.251 814.5,877.5C 816.012,878.862 817.512,879.196 819,878.5C 820.314,879.313 821.481,880.313 822.5,881.5C 824.294,878.725 826.127,876.058 828,873.5C 828.5,873.833 829,874.167 829.5,874.5C 828.833,875.167 828.167,875.833 827.5,876.5C 828.247,876.736 829.08,877.07 830,877.5C 830.333,878.5 830.667,879.5 831,880.5C 832.616,879.455 834.283,878.455 836,877.5C 836.617,876.551 836.451,875.718 835.5,875C 836.676,872.699 838.01,872.366 839.5,874C 838.833,874.667 838.167,875.333 837.5,876C 838.778,882.255 841.611,882.755 846,877.5C 846.87,878.108 847.37,878.941 847.5,880C 845.976,881.194 844.81,882.694 844,884.5C 843.086,883.346 842.253,883.513 841.5,885C 843.885,887.123 846.051,886.623 848,883.5C 848.093,880.993 848.926,878.826 850.5,877C 849.833,876.667 849.167,876.333 848.5,876C 849.682,873.739 851.349,871.905 853.5,870.5C 854.5,870.833 855.167,871.5 855.5,872.5C 854.833,872.833 854.167,873.167 853.5,873.5C 853.808,874.308 854.308,874.975 855,875.5C 856.396,873.473 858.062,873.14 860,874.5C 861.201,872.274 862.535,869.941 864,867.5C 864.684,868.784 864.517,869.951 863.5,871C 864.416,871.374 865.25,871.874 866,872.5C 868.635,871.527 870.635,869.86 872,867.5C 872.202,869.256 872.702,870.922 873.5,872.5C 874.5,873.833 875.5,873.833 876.5,872.5C 877.281,873.729 877.781,875.062 878,876.5C 878.448,874.776 879.282,874.109 880.5,874.5C 877.435,871.993 877.269,869.66 880,867.5C 881.65,868.891 882.15,870.391 881.5,872C 886.709,874.707 889.376,873.374 889.5,868C 886.911,866.078 886.411,863.911 888,861.5C 888.329,865.04 890.162,866.206 893.5,865C 894.833,864 894.833,863 893.5,862C 894.849,861.228 895.682,860.061 896,858.5C 897.167,860 898.333,861.5 899.5,863C 897.498,865.753 895.164,867.419 892.5,868C 893.448,868.483 894.448,868.649 895.5,868.5C 895.03,871.346 895.863,873.679 898,875.5C 898.265,873.837 897.765,872.337 896.5,871C 897.931,870.535 899.097,869.701 900,868.5C 900.414,868.957 900.914,869.291 901.5,869.5C 905.101,867.525 905.101,866.025 901.5,865C 903.112,864.28 904.612,864.446 906,865.5C 907.828,863.597 907.661,861.764 905.5,860C 908.936,859.592 911.77,860.759 914,863.5C 914.667,862.833 915.333,862.167 916,861.5C 915.852,862.825 916.018,863.992 916.5,865C 915.051,866.117 913.384,866.784 911.5,867C 914.871,867.744 918.037,867.244 921,865.5C 922,865.833 923,866.167 924,866.5C 925.154,864.043 926.488,864.043 928,866.5C 929.16,864.203 930.16,864.536 931,867.5C 932.167,866.333 933.333,865.167 934.5,864C 934.643,861.959 934.309,859.792 933.5,857.5C 935.469,855.579 936.969,855.579 938,857.5C 940.179,853.648 942.512,853.648 945,857.5C 945.333,857.167 945.667,856.833 946,856.5C 946.833,857.5 947.667,858.5 948.5,859.5C 949.696,859.154 949.696,858.654 948.5,858C 949.872,857.598 951.205,857.098 952.5,856.5C 953.5,857.833 954.5,859.167 955.5,860.5C 956.89,858.797 958.39,858.13 960,858.5C 960.359,861.544 961.026,861.878 962,859.5C 963.716,860.552 964.716,859.886 965,857.5C 965.333,857.833 965.667,858.167 966,858.5C 966.903,857.299 968.069,856.465 969.5,856C 968.101,855.405 966.768,855.572 965.5,856.5C 964.749,855.624 964.249,854.624 964,853.5C 963.577,854.956 962.744,855.456 961.5,855C 962.59,852.451 964.257,851.617 966.5,852.5C 968.167,851.167 969.833,849.833 971.5,848.5C 972.096,847.284 972.263,845.951 972,844.5C 973.067,845.191 974.234,845.691 975.5,846C 973.549,847.734 972.549,849.901 972.5,852.5C 973.873,852.343 975.207,852.51 976.5,853C 976.043,853.414 975.709,853.914 975.5,854.5C 976.522,855.354 977.355,856.354 978,857.5C 979.666,856.66 979.833,857.16 978.5,859C 979.833,860.333 981.167,861.667 982.5,863C 984.112,863.72 985.612,863.554 987,862.5C 987.333,863.5 987.667,864.5 988,865.5C 988.667,864.167 989.333,864.167 990,865.5C 991.779,863.983 991.279,863.149 988.5,863C 989.271,861.002 988.605,859.335 986.5,858C 987.227,855.876 987.894,853.709 988.5,851.5C 987.265,848.956 986.099,848.956 985,851.5C 983.462,849.671 983.962,848.171 986.5,847C 982.5,845.667 982.5,844.333 986.5,843C 984.007,841.417 984.174,839.917 987,838.5C 991.015,841.517 993.015,840.517 993,835.5C 993.333,837.167 993.667,838.833 994,840.5C 994.469,838.892 995.135,837.225 996,835.5C 996.167,838.333 997.667,839.833 1000.5,840C 999.289,840.893 999.289,841.726 1000.5,842.5C 1004.68,840.803 1005.85,841.803 1004,845.5C 1003.85,842.721 1003.02,842.221 1001.5,844C 1002.05,844.925 1002.71,845.758 1003.5,846.5C 1005.82,846.686 1008.15,847.02 1010.5,847.5C 1009.27,848.281 1007.94,848.781 1006.5,849C 1007.81,850.395 1007.48,851.395 1005.5,852C 1007.88,852.065 1008.55,852.898 1007.5,854.5C 1009.06,856.701 1010.22,856.701 1011,854.5C 1012.07,855.191 1013.23,855.691 1014.5,856C 1013.45,857.388 1013.28,858.888 1014,860.5C 1015.87,861.089 1017.54,860.422 1019,858.5C 1019.78,856.567 1019.28,855.067 1017.5,854C 1019.69,853.075 1021.69,851.908 1023.5,850.5 Z"/></g>
<g><path style="opacity:1" fill="#feaeae" d="M 1023.5,782.5 C 1023.5,805.167 1023.5,827.833 1023.5,850.5C 1021.69,851.908 1019.69,853.075 1017.5,854C 1019.28,855.067 1019.78,856.567 1019,858.5C 1017.54,860.422 1015.87,861.089 1014,860.5C 1013.28,858.888 1013.45,857.388 1014.5,856C 1013.23,855.691 1012.07,855.191 1011,854.5C 1010.22,856.701 1009.06,856.701 1007.5,854.5C 1008.55,852.898 1007.88,852.065 1005.5,852C 1007.48,851.395 1007.81,850.395 1006.5,849C 1007.94,848.781 1009.27,848.281 1010.5,847.5C 1008.15,847.02 1005.82,846.686 1003.5,846.5C 1002.71,845.758 1002.05,844.925 1001.5,844C 1003.02,842.221 1003.85,842.721 1004,845.5C 1005.85,841.803 1004.68,840.803 1000.5,842.5C 999.289,841.726 999.289,840.893 1000.5,840C 997.667,839.833 996.167,838.333 996,835.5C 995.135,837.225 994.469,838.892 994,840.5C 993.667,838.833 993.333,837.167 993,835.5C 993.015,840.517 991.015,841.517 987,838.5C 984.174,839.917 984.007,841.417 986.5,843C 982.5,844.333 982.5,845.667 986.5,847C 983.962,848.171 983.462,849.671 985,851.5C 986.099,848.956 987.265,848.956 988.5,851.5C 987.894,853.709 987.227,855.876 986.5,858C 988.605,859.335 989.271,861.002 988.5,863C 991.279,863.149 991.779,863.983 990,865.5C 989.333,864.167 988.667,864.167 988,865.5C 987.667,864.5 987.333,863.5 987,862.5C 985.612,863.554 984.112,863.72 982.5,863C 981.167,861.667 979.833,860.333 978.5,859C 979.833,857.16 979.666,856.66 978,857.5C 977.355,856.354 976.522,855.354 975.5,854.5C 975.709,853.914 976.043,853.414 976.5,853C 975.207,852.51 973.873,852.343 972.5,852.5C 972.549,849.901 973.549,847.734 975.5,846C 974.234,845.691 973.067,845.191 972,844.5C 972.263,845.951 972.096,847.284 971.5,848.5C 969.833,849.833 968.167,851.167 966.5,852.5C 964.257,851.617 962.59,852.451 961.5,855C 962.744,855.456 963.577,854.956 964,853.5C 964.249,854.624 964.749,855.624 965.5,856.5C 966.768,855.572 968.101,855.405 969.5,856C 968.069,856.465 966.903,857.299 966,858.5C 965.667,858.167 965.333,857.833 965,857.5C 964.716,859.886 963.716,860.552 962,859.5C 961.026,861.878 960.359,861.544 960,858.5C 958.39,858.13 956.89,858.797 955.5,860.5C 954.5,859.167 953.5,857.833 952.5,856.5C 951.205,857.098 949.872,857.598 948.5,858C 949.696,858.654 949.696,859.154 948.5,859.5C 947.667,858.5 946.833,857.5 946,856.5C 945.667,856.833 945.333,857.167 945,857.5C 942.512,853.648 940.179,853.648 938,857.5C 936.969,855.579 935.469,855.579 933.5,857.5C 934.309,859.792 934.643,861.959 934.5,864C 933.333,865.167 932.167,866.333 931,867.5C 930.16,864.536 929.16,864.203 928,866.5C 926.488,864.043 925.154,864.043 924,866.5C 923,866.167 922,865.833 921,865.5C 918.037,867.244 914.871,867.744 911.5,867C 913.384,866.784 915.051,866.117 916.5,865C 916.018,863.992 915.852,862.825 916,861.5C 915.333,862.167 914.667,862.833 914,863.5C 911.77,860.759 908.936,859.592 905.5,860C 907.661,861.764 907.828,863.597 906,865.5C 904.612,864.446 903.112,864.28 901.5,865C 905.101,866.025 905.101,867.525 901.5,869.5C 900.914,869.291 900.414,868.957 900,868.5C 899.097,869.701 897.931,870.535 896.5,871C 897.765,872.337 898.265,873.837 898,875.5C 895.863,873.679 895.03,871.346 895.5,868.5C 894.448,868.649 893.448,868.483 892.5,868C 895.164,867.419 897.498,865.753 899.5,863C 898.333,861.5 897.167,860 896,858.5C 895.682,860.061 894.849,861.228 893.5,862C 894.833,863 894.833,864 893.5,865C 890.162,866.206 888.329,865.04 888,861.5C 886.411,863.911 886.911,866.078 889.5,868C 889.376,873.374 886.709,874.707 881.5,872C 882.15,870.391 881.65,868.891 880,867.5C 877.269,869.66 877.435,871.993 880.5,874.5C 879.282,874.109 878.448,874.776 878,876.5C 877.781,875.062 877.281,873.729 876.5,872.5C 875.5,873.833 874.5,873.833 873.5,872.5C 872.702,870.922 872.202,869.256 872,867.5C 870.635,869.86 868.635,871.527 866,872.5C 865.25,871.874 864.416,871.374 863.5,871C 864.517,869.951 864.684,868.784 864,867.5C 862.535,869.941 861.201,872.274 860,874.5C 858.062,873.14 856.396,873.473 855,875.5C 854.308,874.975 853.808,874.308 853.5,873.5C 854.167,873.167 854.833,872.833 855.5,872.5C 855.167,871.5 854.5,870.833 853.5,870.5C 851.349,871.905 849.682,873.739 848.5,876C 849.167,876.333 849.833,876.667 850.5,877C 848.926,878.826 848.093,880.993 848,883.5C 846.051,886.623 843.885,887.123 841.5,885C 842.253,883.513 843.086,883.346 844,884.5C 844.81,882.694 845.976,881.194 847.5,880C 847.37,878.941 846.87,878.108 846,877.5C 841.611,882.755 838.778,882.255 837.5,876C 838.167,875.333 838.833,874.667 839.5,874C 838.01,872.366 836.676,872.699 835.5,875C 836.451,875.718 836.617,876.551 836,877.5C 834.283,878.455 832.616,879.455 831,880.5C 830.667,879.5 830.333,878.5 830,877.5C 829.08,877.07 828.247,876.736 827.5,876.5C 828.167,875.833 828.833,875.167 829.5,874.5C 829,874.167 828.5,873.833 828,873.5C 826.127,876.058 824.294,878.725 822.5,881.5C 821.481,880.313 820.314,879.313 819,878.5C 817.512,879.196 816.012,878.862 814.5,877.5C 815.582,877.251 816.915,877.085 818.5,877C 817.54,875.581 816.707,874.081 816,872.5C 814.933,873.191 813.766,873.691 812.5,874C 812.957,874.414 813.291,874.914 813.5,875.5C 812.277,877.46 810.944,879.293 809.5,881C 811.107,882.049 811.773,883.549 811.5,885.5C 810.448,885.649 809.448,885.483 808.5,885C 808.833,884.667 809.167,884.333 809.5,884C 809.298,878.993 807.632,878.327 804.5,882C 804.833,882.333 805.167,882.667 805.5,883C 803.567,883.783 802.067,883.283 801,881.5C 800.667,882.167 800.333,882.833 800,883.5C 799.08,880.899 798.413,878.232 798,875.5C 797.692,876.308 797.192,876.975 796.5,877.5C 795.416,876.335 794.583,875.002 794,873.5C 793.919,876.81 792.419,879.143 789.5,880.5C 793.766,883.519 793.433,884.519 788.5,883.5C 787.5,884.167 786.5,884.833 785.5,885.5C 784.808,884.975 784.308,884.308 784,883.5C 783,884.833 782,884.833 781,883.5C 780.798,885.256 780.298,886.922 779.5,888.5C 777.574,889.061 775.574,889.227 773.5,889C 773.833,889.333 774.167,889.667 774.5,890C 773.747,891.487 772.914,891.654 772,890.5C 772.444,893.465 771.277,895.965 768.5,898C 769.716,899.74 771.382,900.74 773.5,901C 771.919,901.707 770.419,902.54 769,903.5C 766.266,902.638 766.099,901.805 768.5,901C 763.289,898.102 763.289,895.269 768.5,892.5C 766.776,891.326 765.109,890.326 763.5,889.5C 764.274,888.289 765.107,888.289 766,889.5C 766.333,888.5 766.667,887.5 767,886.5C 767.914,887.654 768.747,887.487 769.5,886C 767.481,885.55 765.648,884.717 764,883.5C 763.342,885.108 763.842,886.275 765.5,887C 762.901,887.769 760.401,887.602 758,886.5C 757.333,887.5 757.333,888.5 758,889.5C 759.016,890.634 759.683,890.301 760,888.5C 760.667,889.833 761.333,889.833 762,888.5C 762.688,889.332 762.521,889.998 761.5,890.5C 759.566,890.901 758.066,891.901 757,893.5C 755.951,891.893 754.451,891.227 752.5,891.5C 752.649,890.448 752.483,889.448 752,888.5C 750.926,889.618 749.76,890.618 748.5,891.5C 750.387,893.888 751.054,896.388 750.5,899C 749.448,900.119 748.281,900.619 747,900.5C 746.333,904.5 745.667,904.5 745,900.5C 743.748,902.001 742.748,903.668 742,905.5C 741.308,904.975 740.808,904.308 740.5,903.5C 741.833,901.833 741.833,900.167 740.5,898.5C 738.597,896.438 736.263,895.104 733.5,894.5C 735.545,892.949 737.045,890.949 738,888.5C 738.654,889.696 739.154,889.696 739.5,888.5C 738.349,887.269 737.183,887.269 736,888.5C 735.667,886.167 735.333,883.833 735,881.5C 734.586,881.043 734.086,880.709 733.5,880.5C 732.396,881.631 732.729,882.465 734.5,883C 733.019,883.98 731.685,885.147 730.5,886.5C 731.376,887.251 732.376,887.751 733.5,888C 732.354,888.645 731.354,889.478 730.5,890.5C 731.016,889.242 730.35,888.242 728.5,887.5C 726.278,891.712 725.111,891.379 725,886.5C 724.333,887.833 723.333,888.833 722,889.5C 721.309,887.109 720.309,887.109 719,889.5C 718.727,887.899 718.227,886.399 717.5,885C 718.5,884.667 719.5,884.333 720.5,884C 716.5,883.333 716.5,882.667 720.5,882C 718.466,880.795 716.466,880.628 714.5,881.5C 716.991,882.541 716.991,883.374 714.5,884C 717.028,885.316 717.028,886.483 714.5,887.5C 713.833,885.833 713.167,884.167 712.5,882.5C 709.791,883.366 707.457,884.699 705.5,886.5C 704.833,885.5 704.167,884.5 703.5,883.5C 702.653,885.061 702.986,886.561 704.5,888C 701.64,891.03 701.973,893.697 705.5,896C 704.167,897 704.167,898 705.5,899C 704.256,899.456 703.423,898.956 703,897.5C 701.925,900.196 700.092,902.196 697.5,903.5C 696.808,902.975 696.308,902.308 696,901.5C 694.172,903.807 692.506,903.474 691,900.5C 691.599,896.453 690.265,895.786 687,898.5C 685.642,896.811 683.975,895.478 682,894.5C 681.667,895.167 681.333,895.833 681,896.5C 679.5,895.667 678.333,894.5 677.5,893C 676.552,892.517 675.552,892.351 674.5,892.5C 674.89,895.466 674.223,898.132 672.5,900.5C 672.833,901.167 673.167,901.833 673.5,902.5C 671.303,904.852 671.303,907.352 673.5,910C 673.167,910.167 672.833,910.333 672.5,910.5C 669.539,909.817 669.205,908.984 671.5,908C 670.747,906.513 669.914,906.346 669,907.5C 668.5,906.333 667.667,905.5 666.5,905C 667.308,904.692 667.975,904.192 668.5,903.5C 666.535,902.708 664.535,902.041 662.5,901.5C 661.673,903.162 660.507,904.495 659,905.5C 658.259,904.359 657.425,904.359 656.5,905.5C 654.211,903.584 652.044,901.584 650,899.5C 649.333,900.167 648.667,900.833 648,901.5C 646.376,901.43 644.543,900.93 642.5,900C 643.624,899.751 644.624,899.251 645.5,898.5C 644.905,894.484 642.738,893.817 639,896.5C 638.667,895.833 638.333,895.167 638,894.5C 636.612,895.554 635.112,895.72 633.5,895C 633.87,893.39 633.203,891.89 631.5,890.5C 632.167,889.5 632.833,888.5 633.5,887.5C 633.167,887.167 632.833,886.833 632.5,886.5C 629.915,889.864 627.082,890.197 624,887.5C 620.837,890.735 621.003,893.902 624.5,897C 623.448,898.716 624.114,899.716 626.5,900C 624.382,900.26 622.716,901.26 621.5,903C 626.137,906.095 626.137,908.762 621.5,911C 621.944,912.533 622.277,914.033 622.5,915.5C 620.999,916.752 619.332,917.752 617.5,918.5C 616.808,917.975 616.308,917.308 616,916.5C 614.817,917.731 613.651,917.731 612.5,916.5C 613.002,915.284 613.335,914.117 613.5,913C 611.905,913.617 610.572,913.284 609.5,912C 610.634,910.984 610.301,910.317 608.5,910C 609.162,908.668 610.328,907.502 612,906.5C 612.333,906.833 612.667,907.167 613,907.5C 615.566,901.871 614.232,900.871 609,904.5C 606.147,902.839 603.647,900.839 601.5,898.5C 603.083,897.071 603.75,895.571 603.5,894C 602.552,893.517 601.552,893.351 600.5,893.5C 600.649,892.448 600.483,891.448 600,890.5C 598.887,891.76 598.72,892.927 599.5,894C 597.33,895.586 594.996,896.92 592.5,898C 592.833,898.333 593.167,898.667 593.5,899C 591.716,901.418 589.383,901.751 586.5,900C 587.731,898.817 587.731,897.651 586.5,896.5C 583.708,897.445 581.208,897.445 579,896.5C 579.984,894.402 579.651,892.402 578,890.5C 577.667,890.833 577.333,891.167 577,891.5C 574.264,890.273 571.431,889.273 568.5,888.5C 567.97,889.756 567.97,891.256 568.5,893C 566.864,894.434 565.864,896.267 565.5,898.5C 566.956,898.322 568.289,899.156 569.5,901C 568,901.833 566.833,903 566,904.5C 564.47,902.774 563.47,900.774 563,898.5C 562.346,899.696 561.846,899.696 561.5,898.5C 562.687,897.481 563.687,896.314 564.5,895C 563.004,894.493 561.837,894.993 561,896.5C 559.414,895.624 557.914,894.624 556.5,893.5C 556.709,892.914 557.043,892.414 557.5,892C 555.328,889.986 554.495,890.486 555,893.5C 556.564,895.263 557.731,897.263 558.5,899.5C 557.132,900.594 555.965,900.26 555,898.5C 554.101,900.516 552.767,902.183 551,903.5C 550.439,902.978 549.772,902.645 549,902.5C 547.115,905.43 544.615,906.096 541.5,904.5C 540.515,902.228 539.681,899.895 539,897.5C 538.667,897.833 538.333,898.167 538,898.5C 537.163,896.993 535.996,896.493 534.5,897C 534.645,898.916 534.145,900.749 533,902.5C 531.667,895.833 530.333,895.833 529,902.5C 528.167,901.5 527.333,900.5 526.5,899.5C 522.52,902.426 519.686,901.426 518,896.5C 517.586,896.957 517.086,897.291 516.5,897.5C 515.063,894.956 513.563,894.956 512,897.5C 510.887,895.671 509.387,894.837 507.5,895C 509.024,897.358 511.024,899.191 513.5,900.5C 513.291,901.086 512.957,901.586 512.5,902C 514.044,902.29 515.377,902.956 516.5,904C 514.919,904.707 513.419,905.54 512,906.5C 510.242,905.531 509.742,904.364 510.5,903C 508.598,902.801 507.098,901.967 506,900.5C 505.667,901.5 505.333,902.5 505,903.5C 501.85,901.839 500.35,902.839 500.5,906.5C 499.07,906.579 497.736,906.246 496.5,905.5C 495.808,906.025 495.308,906.692 495,907.5C 493.903,905.947 492.57,904.614 491,903.5C 490.28,905.255 489.113,906.089 487.5,906C 488.079,904.092 488.079,902.425 487.5,901C 484.155,898.232 481.988,894.732 481,890.5C 480.259,891.641 479.425,891.641 478.5,890.5C 475.531,891.668 475.198,893.001 477.5,894.5C 477.833,893.833 478.167,893.167 478.5,892.5C 482.361,894.527 482.361,896.694 478.5,899C 479.981,899.98 481.315,901.147 482.5,902.5C 483.258,901.189 484.258,900.689 485.5,901C 484.167,902.333 484.167,903.667 485.5,905C 484.845,906.487 483.845,907.653 482.5,908.5C 480.689,907.264 478.856,907.264 477,908.5C 474.976,908.2 474.476,907.367 475.5,906C 470.863,906.308 470.53,904.975 474.5,902C 473.167,900.667 473.167,899.333 474.5,898C 473.421,897.044 472.255,896.211 471,895.5C 468.808,896.399 466.642,897.399 464.5,898.5C 463.029,897.619 462.196,896.286 462,894.5C 460.682,897.941 458.182,899.275 454.5,898.5C 454.671,901.797 454.005,902.131 452.5,899.5C 451.026,900.436 450.026,901.77 449.5,903.5C 452.158,903.509 454.824,903.509 457.5,903.5C 458.251,902.624 458.751,901.624 459,900.5C 459.574,902.492 460.741,903.992 462.5,905C 460.699,905.317 460.366,905.984 461.5,907C 460.747,908.487 459.914,908.654 459,907.5C 458.517,908.448 458.351,909.448 458.5,910.5C 456.801,910.66 455.134,910.494 453.5,910C 453.619,908.719 453.119,907.552 452,906.5C 448.599,908.605 448.766,910.272 452.5,911.5C 452.333,911.833 452.167,912.167 452,912.5C 449.907,911.754 447.907,911.421 446,911.5C 445,912.167 444,912.833 443,913.5C 441.286,912.075 439.953,912.408 439,914.5C 437.467,914.056 435.967,913.723 434.5,913.5C 434.167,914.167 433.833,914.833 433.5,915.5C 430.877,913.125 431.211,910.959 434.5,909C 434.167,908.667 433.833,908.333 433.5,908C 435.305,907.028 436.972,905.861 438.5,904.5C 435.486,903.038 432.153,901.205 428.5,899C 425.668,897.092 426.001,896.259 429.5,896.5C 429.374,894.8 428.707,893.3 427.5,892C 427.905,891.055 428.572,890.388 429.5,890C 429.201,888.68 429.034,887.18 429,885.5C 428.667,886.167 428.333,886.833 428,887.5C 426.951,886.483 425.784,886.316 424.5,887C 424.833,887.333 425.167,887.667 425.5,888C 424.391,888.638 423.225,889.138 422,889.5C 419.925,888.189 418.591,888.855 418,891.5C 417.167,889 416,888.833 414.5,891C 415.451,891.718 415.617,892.551 415,893.5C 414.346,892.304 413.846,892.304 413.5,893.5C 415.378,895.874 417.712,897.708 420.5,899C 417.685,900.582 415.185,900.415 413,898.5C 412,900.167 410.667,901.5 409,902.5C 408.667,902.167 408.333,901.833 408,901.5C 406.976,903.716 406.476,905.716 406.5,907.5C 404.5,904.167 402.5,900.833 400.5,897.5C 399.833,898.5 399.167,899.5 398.5,900.5C 395.972,899.502 395.972,898.669 398.5,898C 395.993,897.907 393.826,897.074 392,895.5C 390.605,896.815 389.605,896.481 389,894.5C 387.002,896.663 384.668,898.33 382,899.5C 379.623,897.389 377.123,895.389 374.5,893.5C 373.476,894.853 372.143,895.52 370.5,895.5C 370.649,896.552 370.483,897.552 370,898.5C 367.519,895.291 368.352,893.458 372.5,893C 371.5,892.667 370.5,892.333 369.5,892C 371.599,889.184 370.599,887.684 366.5,887.5C 366.657,886.127 366.49,884.793 366,883.5C 365.333,884.833 364.667,884.833 364,883.5C 363.5,884.667 362.667,885.5 361.5,886C 362.956,886.423 363.456,887.256 363,888.5C 360.553,891.708 358.887,891.708 358,888.5C 357.385,890.116 356.385,891.449 355,892.5C 351.038,891.594 350.871,889.76 354.5,887C 354.167,886.833 353.833,886.667 353.5,886.5C 351.869,888.297 349.869,889.464 347.5,890C 348.451,890.718 348.617,891.551 348,892.5C 345.988,890.965 343.822,890.131 341.5,890C 341.5,891.333 341.5,892.667 341.5,894C 336.216,895.289 336.216,896.622 341.5,898C 339.641,898.684 337.974,899.684 336.5,901C 338.929,901.451 339.096,902.285 337,903.5C 335.844,902.007 335.01,902.174 334.5,904C 337.418,904.548 340.084,906.215 342.5,909C 341.5,909.5 340.5,910 339.5,910.5C 337.477,909.46 335.477,908.46 333.5,907.5C 332.558,907.608 331.725,907.941 331,908.5C 327.475,904.728 323.475,904.061 319,906.5C 317.209,904.487 315.875,904.487 315,906.5C 311.076,905.366 310.576,903.199 313.5,900C 315.23,898.148 316.396,898.314 317,900.5C 317.45,898.481 318.283,896.648 319.5,895C 318.234,894.691 317.067,894.191 316,893.5C 312.415,897.232 309.749,901.565 308,906.5C 307.629,902.35 305.629,899.35 302,897.5C 301.5,897.667 301,897.833 300.5,898C 301.833,898.667 301.833,899.333 300.5,900C 298.414,900.627 298.081,900.127 299.5,898.5C 298.349,897.269 297.183,897.269 296,898.5C 295.5,897.333 294.667,896.5 293.5,896C 293.833,895.667 294.167,895.333 294.5,895C 293.5,894.667 292.5,894.333 291.5,894C 292.654,893.086 292.487,892.253 291,891.5C 289.68,891.799 288.18,891.966 286.5,892C 285.307,894.027 283.64,895.527 281.5,896.5C 276.087,892.996 274.587,888.663 277,883.5C 277.654,884.696 278.154,884.696 278.5,883.5C 275.817,879.448 274.484,879.614 274.5,884C 272.621,884.96 270.621,885.46 268.5,885.5C 270.858,888.708 273.192,891.875 275.5,895C 274.419,896.371 273.585,897.871 273,899.5C 270.534,897.328 268.368,894.828 266.5,892C 264.48,890.783 262.48,890.617 260.5,891.5C 258.54,890.277 256.707,888.944 255,887.5C 254.667,888.167 254.333,888.833 254,889.5C 252.667,889.5 251.333,889.5 250,889.5C 249.337,894.001 249.837,894.335 251.5,890.5C 251.822,895.756 249.655,896.756 245,893.5C 243.745,894.211 242.579,895.044 241.5,896C 242.167,896.333 242.833,896.667 243.5,897C 241.069,897.252 238.735,896.752 236.5,895.5C 234.665,899.265 233.165,898.932 232,894.5C 230.703,895.784 229.536,895.617 228.5,894C 230.046,892.56 230.879,890.727 231,888.5C 232.419,887.54 233.919,886.707 235.5,886C 234.747,884.513 233.914,884.346 233,885.5C 232.333,884.167 231.667,882.833 231,881.5C 230.581,885.852 229.914,886.185 229,882.5C 226.957,884.208 225.29,886.208 224,888.5C 221.048,886.807 220.882,884.974 223.5,883C 222.376,882.751 221.376,882.251 220.5,881.5C 221.894,880.313 221.727,879.646 220,879.5C 219.027,881.816 217.027,883.816 214,885.5C 213.996,883.08 214.83,880.413 216.5,877.5C 217.086,877.709 217.586,878.043 218,878.5C 219.825,877.897 221.659,877.23 223.5,876.5C 220.094,876.483 216.928,875.15 214,872.5C 213.333,873.167 212.667,873.833 212,874.5C 211.282,873.549 210.449,873.383 209.5,874C 210.868,875.34 212.201,876.674 213.5,878C 213.056,879.762 212.556,879.595 212,877.5C 211.683,879.301 211.016,879.634 210,878.5C 210.477,881.454 210.644,884.287 210.5,887C 209.552,887.483 208.552,887.649 207.5,887.5C 207.657,886.127 207.49,884.793 207,883.5C 204.597,886.365 203.764,886.199 204.5,883C 201.938,883.238 199.604,882.238 197.5,880C 198.167,878.667 199.167,877.667 200.5,877C 201.292,875.095 201.292,872.929 200.5,870.5C 199.914,870.291 199.414,869.957 199,869.5C 197,871.5 195,873.5 193,875.5C 189.738,872.898 189.905,870.732 193.5,869C 190.597,867.399 189.264,868.566 189.5,872.5C 186.208,872.12 183.875,873.453 182.5,876.5C 183.962,876.065 184.962,876.898 185.5,879C 184.687,880.342 184.354,881.508 184.5,882.5C 182.735,880.533 180.569,879.2 178,878.5C 175.105,882.135 171.772,882.469 168,879.5C 166.574,882.861 164.407,883.361 161.5,881C 161.833,880.667 162.167,880.333 162.5,880C 159.055,878.612 156.889,876.112 156,872.5C 154.663,873.765 153.163,874.265 151.5,874C 151.833,873.667 152.167,873.333 152.5,873C 151.027,872.29 150.36,871.124 150.5,869.5C 148.876,869.36 147.71,870.027 147,871.5C 145.984,870.366 145.317,870.699 145,872.5C 143.287,871.122 141.953,869.455 141,867.5C 140.51,868.793 140.343,870.127 140.5,871.5C 138.61,871.703 137.11,871.037 136,869.5C 134.129,870.997 133.129,872.997 133,875.5C 132.228,874.151 131.061,873.318 129.5,873C 130.711,872.107 130.711,871.274 129.5,870.5C 128.833,871.5 128.167,872.5 127.5,873.5C 124.532,871.626 121.532,871.959 118.5,874.5C 117.201,873.91 116.368,872.91 116,871.5C 115.308,872.025 114.808,872.692 114.5,873.5C 116.444,875.027 117.111,876.693 116.5,878.5C 115.785,876.222 114.618,874.889 113,874.5C 112,875.833 111,875.833 110,874.5C 109.25,875.126 108.416,875.626 107.5,876C 108.03,877.744 108.03,879.244 107.5,880.5C 105.195,878.049 102.361,875.383 99,872.5C 97.9505,873.517 96.7839,873.684 95.5,873C 97.087,872.138 98.7536,871.471 100.5,871C 99.1095,869.98 97.6095,869.147 96,868.5C 94.887,867.24 94.7203,866.073 95.5,865C 94.4214,864.044 93.2547,863.211 92,862.5C 90.1971,862.094 88.3638,862.594 86.5,864C 86.0426,864.414 85.7093,864.914 85.5,865.5C 86.7287,866.281 88.062,866.781 89.5,867C 85.1572,867.189 82.1572,868.689 80.5,871.5C 79.7022,869.922 79.2022,868.256 79,866.5C 78.3333,867.167 77.6667,867.833 77,868.5C 75.7188,868.619 74.5521,868.119 73.5,867C 74.3279,866.085 75.3279,865.419 76.5,865C 75.1236,862.457 73.957,862.291 73,864.5C 70.5301,862.513 67.6967,862.013 64.5,863C 65.2529,864.487 66.0862,864.654 67,863.5C 67.5,864.5 68,865.5 68.5,866.5C 67.5291,867.962 67.8624,869.295 69.5,870.5C 68.9109,873.276 67.5776,875.61 65.5,877.5C 68.2586,881.908 67.2586,883.074 62.5,881C 62.8333,880.667 63.1667,880.333 63.5,880C 62.1068,878.829 61.2735,877.329 61,875.5C 59.8525,876.458 58.8525,876.125 58,874.5C 54.6639,878.449 52.6639,878.116 52,873.5C 49.9405,873.446 47.7739,873.613 45.5,874C 46.1667,873.667 46.8333,873.333 47.5,873C 47.5664,870.534 47.5664,868.034 47.5,865.5C 47.9767,864.522 48.6433,863.689 49.5,863C 48.5509,862.383 47.7175,862.549 47,863.5C 46.6667,865.167 46.3333,866.833 46,868.5C 44.9852,865.898 43.1518,864.065 40.5,863C 44.4659,861.279 44.4659,859.612 40.5,858C 41.8333,857.333 41.8333,856.667 40.5,856C 42.6157,854.829 43.2824,853.329 42.5,851.5C 45.2787,850.611 47.9454,849.444 50.5,848C 49.376,847.751 48.376,847.251 47.5,846.5C 48.9824,845.841 50.649,844.674 52.5,843C 50.8333,842.667 49.1667,842.333 47.5,842C 48.4506,841.282 48.6172,840.449 48,839.5C 47.3109,840.357 46.4776,841.023 45.5,841.5C 44.3044,841.154 44.3044,840.654 45.5,840C 43.255,840.195 41.4216,841.362 40,843.5C 39.6667,842.833 39.3333,842.167 39,841.5C 38.3946,843.481 37.3946,843.815 36,842.5C 36.4787,845.49 38.3121,847.49 41.5,848.5C 40.6034,848.669 39.6034,849.002 38.5,849.5C 39.3256,850.451 39.4922,851.451 39,852.5C 36.8627,851.521 35.0294,850.188 33.5,848.5C 33.1207,845.919 33.7874,843.419 35.5,841C 33.9984,840.417 32.6651,839.584 31.5,838.5C 30.3595,837.575 30.3595,836.741 31.5,836C 30.5509,835.383 29.7175,835.549 29,836.5C 26.0483,834.807 25.8817,832.974 28.5,831C 27.2766,828.948 26.2766,826.781 25.5,824.5C 24.8333,825.167 24.1667,825.833 23.5,826.5C 21.5739,824.53 19.5739,824.863 17.5,827.5C 13.9213,823.298 11.4213,823.965 10,829.5C 9.33333,828.167 8.66667,828.167 8,829.5C 7.88486,827.893 8.38486,826.393 9.5,825C 6.46083,820.537 3.96083,820.703 2,825.5C 1.2917,824.619 0.458367,823.953 -0.5,823.5C -0.5,783.167 -0.5,742.833 -0.5,702.5C 0.26791,703.263 0.76791,704.263 1,705.5C 2.4907,703.996 4.32403,703.163 6.5,703C 5.55198,702.517 4.55198,702.351 3.5,702.5C 3.61679,700.516 2.95012,698.85 1.5,697.5C 3.01203,696.138 4.51203,695.804 6,696.5C 7.30863,694.109 8.30863,694.109 9,696.5C 9.24917,695.376 9.74917,694.376 10.5,693.5C 10.8333,693.667 11.1667,693.833 11.5,694C 10.1667,695 10.1667,696 11.5,697C 6.68325,697.071 5.84992,698.571 9,701.5C 10.4737,698.675 11.9737,698.342 13.5,700.5C 14.5,699.5 15.5,698.5 16.5,697.5C 15.1832,697.687 13.8499,697.02 12.5,695.5C 12.8457,694.304 13.3457,694.304 14,695.5C 14.6667,690.167 15.3333,690.167 16,695.5C 16.5,695 17,694.5 17.5,694C 16.4477,692.284 17.1144,691.284 19.5,691C 18.7877,689.575 18.621,688.075 19,686.5C 18.0805,686.07 17.2472,685.736 16.5,685.5C 17,685.167 17.5,684.833 18,684.5C 19.4219,683.795 20.7553,683.461 22,683.5C 22.2121,686.127 21.8787,688.127 21,689.5C 22.0113,690.337 23.1779,690.67 24.5,690.5C 24.3505,691.552 24.5172,692.552 25,693.5C 25.3333,693.167 25.6667,692.833 26,692.5C 27.3086,694.891 28.3086,694.891 29,692.5C 31.7229,696.756 32.8896,696.422 32.5,691.5C 34.9928,691.671 36.8261,690.671 38,688.5C 38.3076,689.308 38.8076,689.975 39.5,690.5C 40.3333,689.5 41.1667,688.5 42,687.5C 43.4601,687.982 44.9601,689.149 46.5,691C 42.0836,695.002 42.5836,696.169 48,694.5C 48.6667,697.167 49.3333,697.167 50,694.5C 50.7724,695.849 51.9391,696.682 53.5,697C 52.1667,697.667 52.1667,698.333 53.5,699C 52.5,699.333 51.5,699.667 50.5,700C 52.3072,701.236 54.3072,701.57 56.5,701C 56.1898,702.874 56.6898,704.707 58,706.5C 59.7343,705.362 61.5676,704.862 63.5,705C 63.5,706 63.5,707 63.5,708C 62.0039,708.507 60.8373,708.007 60,706.5C 59.6824,708.061 58.8491,709.228 57.5,710C 57.8333,710.333 58.1667,710.667 58.5,711C 56.8678,712.31 55.2012,712.81 53.5,712.5C 51.9954,709.869 51.3287,710.203 51.5,713.5C 53.1992,713.34 54.8659,713.506 56.5,714C 55.376,714.249 54.376,714.749 53.5,715.5C 55.0778,716.072 56.5778,716.406 58,716.5C 58.6172,715.551 58.4506,714.718 57.5,714C 58.4491,713.383 59.2825,713.549 60,714.5C 60.3333,713.833 60.6667,713.167 61,712.5C 62.353,713.685 63.5197,715.019 64.5,716.5C 62.5565,717.538 61.0565,718.871 60,720.5C 59.6667,719.833 59.3333,719.167 59,718.5C 58.3162,719.784 58.4829,720.951 59.5,722C 57.741,723.008 56.5743,724.508 56,726.5C 55.6667,725.5 55.3333,724.5 55,723.5C 53.6912,725.976 51.8579,727.976 49.5,729.5C 48.2528,731.006 48.2528,732.506 49.5,734C 46.5905,737.034 43.2572,737.867 39.5,736.5C 39.938,732.092 37.938,730.425 33.5,731.5C 33.3068,735.449 32.8068,735.449 32,731.5C 29.9137,728.005 27.7471,727.838 25.5,731C 29.1866,730.369 31.52,732.036 32.5,736C 31.1669,737.84 31.3335,738.34 33,737.5C 33.065,739.883 33.8983,740.55 35.5,739.5C 39.3863,740.588 39.3863,741.421 35.5,742C 36.6956,742.654 36.6956,743.154 35.5,743.5C 34.2519,742.96 33.0852,742.293 32,741.5C 31.3333,742.5 31.3333,743.5 32,744.5C 32.3333,744.167 32.6667,743.833 33,743.5C 34.1011,745.394 35.4345,746.061 37,745.5C 37.6891,744.643 38.5224,743.977 39.5,743.5C 40.5779,745.475 40.2446,747.308 38.5,749C 39.5,751 40.5,751 41.5,749C 40.6548,747.442 41.3215,746.442 43.5,746C 43.1667,745.667 42.8333,745.333 42.5,745C 43.8659,743.4 44.8659,741.567 45.5,739.5C 46.1916,741.232 46.6916,743.232 47,745.5C 47.3333,745.167 47.6667,744.833 48,744.5C 49.0736,745.618 50.2402,746.618 51.5,747.5C 50.624,748.251 49.624,748.751 48.5,749C 49.3247,750.688 50.3247,750.855 51.5,749.5C 52.4803,750.981 53.647,752.315 55,753.5C 54.8516,752.175 55.0183,751.008 55.5,750C 54.8333,748.667 54.1667,747.333 53.5,746C 55.9027,742.822 57.736,742.989 59,746.5C 61.1087,745.965 61.6087,744.965 60.5,743.5C 62.124,742.131 62.624,740.464 62,738.5C 61.4646,740.271 60.6313,740.604 59.5,739.5C 62.3772,737.087 62.0439,735.253 58.5,734C 59.3081,733.692 59.9747,733.192 60.5,732.5C 60.0623,731.494 59.3957,731.494 58.5,732.5C 57.479,731.998 57.3123,731.332 58,730.5C 59.9114,730.745 61.9114,730.745 64,730.5C 64.3333,731.5 64.6667,732.5 65,733.5C 66.0875,731.068 66.5875,731.402 66.5,734.5C 67.8734,734.343 69.2068,734.51 70.5,735C 70.5963,736.373 70.4296,737.873 70,739.5C 71.0674,738.809 72.2341,738.309 73.5,738C 72.0439,737.577 71.5439,736.744 72,735.5C 75.3249,737.236 76.9916,735.903 77,731.5C 74.5723,733.974 74.0723,733.474 75.5,730C 73,729.167 72.8333,728 75,726.5C 76.6373,727.833 77.4707,729.166 77.5,730.5C 78.1924,729.975 78.6924,729.308 79,728.5C 79.7203,730.112 79.5536,731.612 78.5,733C 80.1161,733.615 81.4495,734.615 82.5,736C 83.4491,736.617 84.2825,736.451 85,735.5C 85.7869,736.711 86.4536,737.711 87,738.5C 87.5,738.333 88,738.167 88.5,738C 87.2888,737.107 87.2888,736.274 88.5,735.5C 89.8139,736.313 90.9805,737.313 92,738.5C 91.4599,735.575 92.6266,733.242 95.5,731.5C 94.7528,731.264 93.9195,730.93 93,730.5C 92.3333,729.5 92.3333,728.5 93,727.5C 94.5655,726.939 95.8989,727.606 97,729.5C 98.8402,728.167 99.3402,728.334 98.5,730C 100.211,731.133 100.711,732.633 100,734.5C 99.6667,734.167 99.3333,733.833 99,733.5C 95.5681,736.034 95.7348,736.701 99.5,735.5C 102.167,737.167 104.833,738.833 107.5,740.5C 107.833,740.167 108.167,739.833 108.5,739.5C 107.189,738.742 106.689,737.742 107,736.5C 112.082,739.774 112.248,742.774 107.5,745.5C 108.5,746.833 109.5,748.167 110.5,749.5C 109.96,750.748 109.293,751.915 108.5,753C 108.833,753.333 109.167,753.667 109.5,754C 106.638,754.27 103.972,755.104 101.5,756.5C 102,756.833 102.5,757.167 103,757.5C 106.609,754.785 107.609,755.452 106,759.5C 104.207,758.619 103.54,759.286 104,761.5C 105.473,761.868 106.973,761.368 108.5,760C 108.167,759.667 107.833,759.333 107.5,759C 110.253,755.496 111.42,755.662 111,759.5C 112.011,758.663 113.178,758.33 114.5,758.5C 114.762,757.022 114.429,755.689 113.5,754.5C 112.549,755.326 111.549,755.492 110.5,755C 110.381,753.719 110.881,752.552 112,751.5C 113.309,753.891 114.309,753.891 115,751.5C 116.074,752.618 117.24,753.618 118.5,754.5C 117.753,754.736 116.92,755.07 116,755.5C 115.333,756.167 115.333,756.833 116,757.5C 117.566,758.061 118.899,757.394 120,755.5C 120.249,756.624 120.749,757.624 121.5,758.5C 121.88,756.979 122.046,755.313 122,753.5C 122.333,754.167 122.667,754.833 123,755.5C 123.39,751.834 124.557,751.668 126.5,755C 124.068,756.087 124.402,756.587 127.5,756.5C 127.693,760.449 128.193,760.449 129,756.5C 129.82,758.728 129.487,760.728 128,762.5C 126.494,759.526 124.828,759.193 123,761.5C 121.467,761.056 119.967,760.723 118.5,760.5C 117.063,763.044 115.563,763.044 114,760.5C 113.558,762.679 112.558,763.345 111,762.5C 109.678,764.474 110.178,766.308 112.5,768C 111.939,769.676 110.939,771.009 109.5,772C 110.833,772.333 112.167,772.667 113.5,773C 112.354,773.645 111.354,774.478 110.5,775.5C 109.914,775.291 109.414,774.957 109,774.5C 107.833,775.667 106.667,776.833 105.5,778C 106,778.167 106.5,778.333 107,778.5C 108.892,775.61 109.725,775.944 109.5,779.5C 107.058,779.354 106.391,780.187 107.5,782C 105.939,782.318 104.772,783.151 104,784.5C 103.086,783.346 102.253,783.513 101.5,785C 103.076,785.44 104.41,786.273 105.5,787.5C 106.711,786.726 106.711,785.893 105.5,785C 111.365,781.108 114.532,775.608 115,768.5C 115.965,770.26 117.132,770.594 118.5,769.5C 117.452,767.544 116.952,765.544 117,763.5C 118.147,764.458 119.147,764.125 120,762.5C 122.418,766.347 121.584,769.847 117.5,773C 119.426,773.124 121.259,773.958 123,775.5C 123.333,775.167 123.667,774.833 124,774.5C 125.117,775.949 125.784,777.616 126,779.5C 126.333,778.5 126.667,777.5 127,776.5C 127.333,778.833 127.667,781.167 128,783.5C 129.011,782.663 130.178,782.33 131.5,782.5C 130.613,781.038 129.613,779.205 128.5,777C 129.579,776.044 130.745,775.211 132,774.5C 132.317,776.301 132.984,776.634 134,775.5C 135.188,776.563 135.688,777.897 135.5,779.5C 134.448,779.351 133.448,779.517 132.5,780C 137.833,780.667 137.833,781.333 132.5,782C 133.253,783.487 134.086,783.654 135,782.5C 135.309,783.766 135.809,784.933 136.5,786C 134.099,786.805 134.266,787.638 137,788.5C 138.223,786.015 139.723,785.848 141.5,788C 139.377,789.773 137.377,790.94 135.5,791.5C 136.376,792.251 137.376,792.751 138.5,793C 137.216,794.297 137.383,795.464 139,796.5C 140,795.167 141,793.833 142,792.5C 142.93,794.552 144.43,796.052 146.5,797C 144.998,797.583 143.665,798.416 142.5,799.5C 142.808,800.308 143.308,800.975 144,801.5C 146.058,800.891 146.891,799.891 146.5,798.5C 147.833,800.5 149.5,802.167 151.5,803.5C 152.096,802.284 152.263,800.951 152,799.5C 153.758,800.469 154.258,801.636 153.5,803C 154.939,803.991 155.939,805.324 156.5,807C 154.939,807.188 154.272,806.355 154.5,804.5C 152.085,804.373 149.751,804.207 147.5,804C 147.833,804.333 148.167,804.667 148.5,805C 146.411,808.123 147.078,808.29 150.5,805.5C 151.308,805.808 151.975,806.308 152.5,807C 148.596,808.182 147.762,810.349 150,813.5C 151.322,810.112 153.155,809.779 155.5,812.5C 157.323,811.509 158.823,810.176 160,808.5C 161.073,809.28 162.24,809.113 163.5,808C 161.122,807.026 161.456,806.359 164.5,806C 162.405,805.444 162.238,804.944 164,804.5C 166.024,804.8 166.524,805.633 165.5,807C 166.973,807.71 167.64,808.876 167.5,810.5C 165.571,810.231 163.905,810.731 162.5,812C 163,812.5 163.5,813 164,813.5C 164.953,811.408 166.286,811.075 168,812.5C 168.511,810.122 169.178,807.788 170,805.5C 173.462,805.017 173.962,803.85 171.5,802C 172.931,801.535 174.097,800.701 175,799.5C 176.724,802.73 178.724,803.064 181,800.5C 181.572,804.057 182.072,807.39 182.5,810.5C 183.243,809.092 184.077,807.759 185,806.5C 188.866,809.247 191.532,808.247 193,803.5C 192.626,805.769 192.626,808.102 193,810.5C 193.667,808.5 194.333,806.5 195,804.5C 195.249,805.624 195.749,806.624 196.5,807.5C 197.452,806.467 197.452,805.3 196.5,804C 197.794,803.894 198.461,802.894 198.5,801C 197.195,799.244 196.528,797.577 196.5,796C 201.323,794.428 201.823,791.928 198,788.5C 197.647,790.074 196.98,791.741 196,793.5C 195.333,792.167 194.667,790.833 194,789.5C 193.667,790.167 193.333,790.833 193,791.5C 192.5,790.333 191.667,789.5 190.5,789C 194.581,788.385 197.414,786.218 199,782.5C 199.667,785.167 200.333,785.167 201,782.5C 201.991,783.939 203.324,784.939 205,785.5C 205.353,783.926 206.02,782.259 207,780.5C 209.784,777.716 211.451,778.383 212,782.5C 213.171,781.107 214.671,780.273 216.5,780C 213.258,779.717 212.924,778.883 215.5,777.5C 217.332,778.248 218.999,779.248 220.5,780.5C 221.675,779.145 222.675,779.312 223.5,781C 221.866,781.494 220.199,781.66 218.5,781.5C 218.451,784.099 217.451,786.266 215.5,788C 221.143,791.52 220.81,793.854 214.5,795C 218.939,795.715 220.106,797.882 218,801.5C 217.261,799.779 216.427,798.113 215.5,796.5C 214.167,797.167 212.833,797.833 211.5,798.5C 210.821,796.875 209.655,795.542 208,794.5C 206.37,795.713 204.536,796.546 202.5,797C 202.432,799.019 203.432,800.853 205.5,802.5C 207.006,803.747 208.506,803.747 210,802.5C 210.5,803 211,803.5 211.5,804C 210.167,804.333 208.833,804.667 207.5,805C 209.421,806.241 209.754,807.741 208.5,809.5C 207.549,808.674 206.549,808.508 205.5,809C 205.833,809.333 206.167,809.667 206.5,810C 203.833,810.667 203.833,811.333 206.5,812C 205.044,812.423 204.544,813.256 205,814.5C 206.32,814.201 207.82,814.034 209.5,814C 210.874,811.101 212.374,810.934 214,813.5C 215.562,812.069 217.062,810.569 218.5,809C 218.043,808.586 217.709,808.086 217.5,807.5C 219.108,806.682 220.775,806.015 222.5,805.5C 223.861,807.028 225.028,808.695 226,810.5C 228.544,809.881 231.044,810.381 233.5,812C 232.328,812.419 231.328,813.085 230.5,814C 233.567,817.297 235.733,821.131 237,825.5C 238.487,824.747 238.654,823.914 237.5,823C 239.886,823.351 242.219,823.185 244.5,822.5C 243.535,821.086 242.535,820.253 241.5,820C 244.191,818.53 244.191,816.197 241.5,813C 242.108,812.13 242.941,811.63 244,811.5C 246.799,812.237 246.966,813.07 244.5,814C 245.701,814.903 246.535,816.069 247,817.5C 248,816.167 249,816.167 250,817.5C 251.588,815.032 253.422,814.866 255.5,817C 254.09,817.368 253.09,818.201 252.5,819.5C 255.456,822.051 257.956,825.051 260,828.5C 261,825.833 262,825.833 263,828.5C 263.309,827.234 263.809,826.067 264.5,825C 262.998,824.417 261.665,823.584 260.5,822.5C 262.436,821.981 264.269,822.647 266,824.5C 267.204,823.529 267.704,822.529 267.5,821.5C 268.197,823.385 269.197,823.718 270.5,822.5C 271.548,823.383 272.715,824.05 274,824.5C 276.964,823.76 279.964,822.76 283,821.5C 283.5,822 284,822.5 284.5,823C 283.872,826.609 283.872,829.943 284.5,833C 285.025,833.692 285.692,834.192 286.5,834.5C 288.543,833.421 289.876,831.754 290.5,829.5C 287.667,826.002 288.333,824.502 292.5,825C 296.384,822.425 295.884,820.591 291,819.5C 290.055,819.905 289.388,820.572 289,821.5C 288.626,820.584 288.126,819.75 287.5,819C 289.777,818.792 291.943,817.958 294,816.5C 294.833,818 296,819.167 297.5,820C 296.483,821.049 296.316,822.216 297,823.5C 298.746,821.543 300.912,820.543 303.5,820.5C 303.277,817.886 304.444,816.219 307,815.5C 310.667,822.242 310.167,828.576 305.5,834.5C 306.868,835.594 308.035,835.26 309,833.5C 309.617,834.449 309.451,835.282 308.5,836C 309.641,837.617 310.474,839.45 311,841.5C 311.333,840.833 311.667,840.167 312,839.5C 312.741,840.641 313.575,840.641 314.5,839.5C 315.86,841.981 316.86,841.648 317.5,838.5C 315.542,836.731 313.542,836.065 311.5,836.5C 312.052,834.667 312.885,833 314,831.5C 314,832.833 314,834.167 314,835.5C 315.975,834.522 317.642,833.189 319,831.5C 320.762,831.944 320.595,832.444 318.5,833C 320.434,834.353 322.267,835.853 324,837.5C 324.718,836.549 325.551,836.383 326.5,837C 328.154,838.827 328.988,840.66 329,842.5C 329.667,841.167 330.333,841.167 331,842.5C 331.456,841.256 330.956,840.423 329.5,840C 330.5,839.5 331.5,839 332.5,838.5C 333.768,839.428 335.101,839.595 336.5,839C 334.776,838.552 334.109,837.718 334.5,836.5C 333.833,836.833 333.167,837.167 332.5,837.5C 330.729,836.965 330.396,836.131 331.5,835C 329.722,832.865 329.055,830.365 329.5,827.5C 328.325,827.719 327.325,827.386 326.5,826.5C 328.636,825.528 329.803,823.861 330,821.5C 331.008,821.018 332.175,820.852 333.5,821C 333.167,820.667 332.833,820.333 332.5,820C 333.656,818.385 334.989,818.385 336.5,820C 335.572,820.388 334.905,821.055 334.5,822C 335.615,823.235 335.615,824.402 334.5,825.5C 334.919,826.672 335.585,827.672 336.5,828.5C 337.989,828.533 339.322,829.033 340.5,830C 338.964,831.599 338.464,833.433 339,835.5C 339.333,834.833 339.667,834.167 340,833.5C 340.317,835.301 340.984,835.634 342,834.5C 343.509,835.09 345.009,835.756 346.5,836.5C 345.418,836.749 344.085,836.915 342.5,837C 343.061,838.566 342.394,839.899 340.5,841C 341.931,841.465 343.097,842.299 344,843.5C 344.605,841.519 345.605,841.185 347,842.5C 349.3,839.752 350.966,837.085 352,834.5C 354,835.167 355.333,836.5 356,838.5C 356.689,837.643 357.522,836.977 358.5,836.5C 359.72,837.711 360.887,837.711 362,836.5C 362.5,837 363,837.5 363.5,838C 362.483,839.049 362.316,840.216 363,841.5C 364.987,840.782 366.821,839.782 368.5,838.5C 369.086,838.709 369.586,839.043 370,839.5C 371.84,837.546 372.673,835.546 372.5,833.5C 373.147,836.454 373.314,839.454 373,842.5C 373.667,841.167 374.333,841.167 375,842.5C 375.233,840.22 376.066,838.22 377.5,836.5C 378.333,837.5 379.167,838.5 380,839.5C 379.068,837.138 379.568,834.972 381.5,833C 379.009,832.374 379.009,831.541 381.5,830.5C 380.011,830.467 378.678,829.967 377.5,829C 378.667,827.167 380.167,825.667 382,824.5C 383.734,825.249 385.567,825.749 387.5,826C 386.5,826.333 385.5,826.667 384.5,827C 385.833,827.667 387.167,828.333 388.5,829C 388.167,829.333 387.833,829.667 387.5,830C 388.715,832.096 389.549,831.929 390,829.5C 391.365,830.593 391.699,831.926 391,833.5C 390.333,832.167 389.667,832.167 389,833.5C 388.333,832.833 387.667,832.167 387,831.5C 386.309,833.891 385.309,833.891 384,831.5C 383.535,832.931 382.701,834.097 381.5,835C 382.667,835.5 383.5,836.333 384,837.5C 384.772,836.151 385.939,835.318 387.5,835C 390.195,834.746 392.695,834.579 395,834.5C 395.333,835.5 395.667,836.5 396,837.5C 397.067,836.809 398.234,836.309 399.5,836C 398.179,834.455 398.512,833.289 400.5,832.5C 401.452,834.045 401.785,835.712 401.5,837.5C 398.402,837.413 398.068,837.913 400.5,839C 398.077,840.571 396.744,842.737 396.5,845.5C 395.127,845.343 393.793,845.51 392.5,846C 393.667,846.5 394.5,847.333 395,848.5C 395.333,847.833 395.667,847.167 396,846.5C 396.36,848.608 397.027,850.608 398,852.5C 398.333,852.167 398.667,851.833 399,851.5C 399.249,852.624 399.749,853.624 400.5,854.5C 403.314,855.022 405.98,855.022 408.5,854.5C 409.72,854.113 410.387,853.28 410.5,852C 406.821,850.067 406.821,848.4 410.5,847C 408.567,846.217 407.067,846.717 406,848.5C 405.586,848.043 405.086,847.709 404.5,847.5C 403.396,848.631 403.729,849.465 405.5,850C 403.714,850.785 402.214,851.951 401,853.5C 400.28,851.888 400.446,850.388 401.5,849C 400.833,848.667 400.167,848.333 399.5,848C 400.833,847.333 402.167,846.667 403.5,846C 402.257,844.846 401.257,843.512 400.5,842C 401.742,838.643 402.576,838.81 403,842.5C 405.785,842.236 408.619,841.236 411.5,839.5C 412.584,840.665 413.417,841.998 414,843.5C 414.308,842.692 414.808,842.025 415.5,841.5C 415.736,842.247 416.07,843.08 416.5,844C 412.918,844.595 412.584,845.929 415.5,848C 413.655,850.281 412.488,852.781 412,855.5C 413.713,854.122 415.047,852.455 416,850.5C 417.628,851.097 419.295,850.763 421,849.5C 421.333,850.167 421.667,850.833 422,851.5C 423.333,850.833 424.667,850.167 426,849.5C 427.753,852.41 427.253,855.076 424.5,857.5C 424.919,858.672 425.585,859.672 426.5,860.5C 427.72,859.289 428.887,859.289 430,860.5C 430.853,858.875 431.853,858.542 433,859.5C 433.667,858.5 433.667,857.5 433,856.5C 432.667,856.833 432.333,857.167 432,857.5C 430,855.833 430,854.167 432,852.5C 432.725,854.158 433.892,854.658 435.5,854C 433.598,852.606 433.265,850.773 434.5,848.5C 436.103,848.312 437.437,848.812 438.5,850C 436.579,851.241 436.246,852.741 437.5,854.5C 439.167,852.5 440.833,850.5 442.5,848.5C 445.076,849.883 444.742,850.717 441.5,851C 442.865,852.682 444.365,852.849 446,851.5C 446.667,852.5 446.667,853.5 446,854.5C 445.107,853.289 444.274,853.289 443.5,854.5C 442.754,855.736 442.421,857.07 442.5,858.5C 445.329,858.369 446.662,859.369 446.5,861.5C 446.738,859.522 448.071,857.855 450.5,856.5C 451.833,857.833 453.167,857.833 454.5,856.5C 455.427,858.946 457.094,859.779 459.5,859C 458.167,857.16 458.334,856.66 460,857.5C 461.067,856.809 462.234,856.309 463.5,856C 462.24,854.887 461.073,854.72 460,855.5C 458.807,854.022 458.307,852.688 458.5,851.5C 457.522,851.977 456.689,852.643 456,853.5C 454.667,852.167 453.333,852.167 452,853.5C 451.333,852.167 451.333,850.833 452,849.5C 452.333,850.167 452.667,850.833 453,851.5C 454.394,849.309 455.894,847.975 457.5,847.5C 456.687,846.186 455.687,845.019 454.5,844C 455.793,843.51 457.127,843.343 458.5,843.5C 458.491,841.692 458.991,840.025 460,838.5C 461.609,839.15 463.109,838.65 464.5,837C 462.842,836.275 462.342,835.108 463,833.5C 463.772,834.849 464.939,835.682 466.5,836C 466.384,837.268 466.051,838.602 465.5,840C 467.286,840.785 468.786,841.951 470,843.5C 472.734,842.638 472.901,841.805 470.5,841C 471.579,840.044 472.745,839.211 474,838.5C 474.5,839.667 475.333,840.5 476.5,841C 474.078,843.003 473.245,845.503 474,848.5C 474.118,846.427 475.118,845.093 477,844.5C 479.537,845.097 481.537,846.43 483,848.5C 486.299,843.17 487.132,843.67 485.5,850C 486.167,850.333 486.833,850.667 487.5,851C 486.483,852.049 486.316,853.216 487,854.5C 488.351,854.446 489.518,854.946 490.5,856C 489.99,857.826 489.156,857.993 488,856.5C 484.505,860.761 485.172,861.428 490,858.5C 490.915,859.328 491.581,860.328 492,861.5C 492.333,860.5 492.667,859.5 493,858.5C 493.556,860.595 494.056,860.762 494.5,859C 491.786,856.501 491.453,854.001 493.5,851.5C 492.167,850.167 492.167,848.833 493.5,847.5C 492.975,846.808 492.308,846.308 491.5,846C 492.667,845.5 493.5,844.667 494,843.5C 494.465,844.931 495.299,846.097 496.5,847C 494.675,848.466 494.175,850.299 495,852.5C 495.29,850.956 495.956,849.623 497,848.5C 497.667,849.833 498.333,849.833 499,848.5C 499.658,850.108 499.158,851.275 497.5,852C 500.316,853.647 502.816,853.48 505,851.5C 507.185,852.758 509.352,852.758 511.5,851.5C 512.333,852.5 513.167,853.5 514,854.5C 514.862,852.913 515.529,851.246 516,849.5C 516.333,850.167 516.667,850.833 517,851.5C 518.716,850.448 519.716,851.114 520,853.5C 520.179,851.576 520.346,849.909 520.5,848.5C 521.192,849.025 521.692,849.692 522,850.5C 522.333,850.167 522.667,849.833 523,849.5C 524.786,851.118 526.953,852.451 529.5,853.5C 531.741,852.968 533.241,851.635 534,849.5C 534.5,850 535,850.5 535.5,851C 533.787,852.378 532.453,854.045 531.5,856C 532,856.5 532.5,857 533,857.5C 534.487,856.747 534.654,855.914 533.5,855C 535.556,854.689 537.556,854.189 539.5,853.5C 540.429,854.689 540.762,856.022 540.5,857.5C 542.124,857.36 543.29,858.027 544,859.5C 546.012,857.876 547.846,856.042 549.5,854C 550.355,852.549 550.522,851.049 550,849.5C 551.751,851.49 552.751,853.823 553,856.5C 553.333,855.167 553.667,853.833 554,852.5C 554.414,852.957 554.914,853.291 555.5,853.5C 557.98,852.585 558.647,851.085 557.5,849C 559.626,846.567 560.959,843.734 561.5,840.5C 562.478,840.023 563.311,839.357 564,838.5C 565.101,840.394 566.434,841.061 568,840.5C 568.308,839.692 568.808,839.025 569.5,838.5C 569.694,840.04 570.527,841.706 572,843.5C 572.741,842.359 573.575,842.359 574.5,843.5C 576.156,842.008 577.656,840.342 579,838.5C 579.684,837.216 579.517,836.049 578.5,835C 579.416,834.626 580.25,834.126 581,833.5C 582.171,834.893 583.671,835.727 585.5,836C 582.833,837.333 582.833,838.667 585.5,840C 585.167,840.333 584.833,840.667 584.5,841C 586.5,841.667 588.5,841.667 590.5,841C 589.549,840.282 589.383,839.449 590,838.5C 590.667,839.833 591.333,839.833 592,838.5C 592,839.833 592,841.167 592,842.5C 593.388,841.446 594.888,841.28 596.5,842C 595.5,842.333 594.5,842.667 593.5,843C 595.049,844.214 596.215,845.714 597,847.5C 597.249,846.376 597.749,845.376 598.5,844.5C 598.833,844.667 599.167,844.833 599.5,845C 598.695,847.134 599.362,848.967 601.5,850.5C 602.696,850.154 602.696,849.654 601.5,849C 603.618,847.858 605.618,847.358 607.5,847.5C 608.251,848.376 608.751,849.376 609,850.5C 609.5,849.333 610.333,848.5 611.5,848C 610.833,847.667 610.167,847.333 609.5,847C 611.521,846.86 613.355,846.693 615,846.5C 615.317,848.301 615.984,848.634 617,847.5C 619.635,848.473 621.635,850.14 623,852.5C 625.75,848.929 628.25,848.929 630.5,852.5C 629.617,854.743 630.451,856.41 633,857.5C 635.839,854.727 636.672,851.894 635.5,849C 636.665,847.916 637.998,847.083 639.5,846.5C 641.446,848.087 642.946,847.754 644,845.5C 646.315,850.973 649.482,851.806 653.5,848C 652.452,845.8 650.952,845.3 649,846.5C 648.5,845.333 647.667,844.5 646.5,844C 648.93,843.217 651.096,842.051 653,840.5C 655.812,840.817 657.979,842.15 659.5,844.5C 660.086,844.291 660.586,843.957 661,843.5C 661.202,845.256 661.702,846.922 662.5,848.5C 663.478,848.023 664.311,847.357 665,846.5C 666,847.833 667,847.833 668,846.5C 669.817,844.177 670.817,841.844 671,839.5C 672.617,840.536 672.784,841.703 671.5,843C 673.531,843.632 675.198,844.799 676.5,846.5C 675.833,846.833 675.167,847.167 674.5,847.5C 675.025,848.192 675.692,848.692 676.5,849C 675.299,849.903 674.465,851.069 674,852.5C 672.491,853.09 670.991,853.756 669.5,854.5C 670.262,854.911 671.262,855.077 672.5,855C 672.167,855.333 671.833,855.667 671.5,856C 672.849,856.772 673.682,857.939 674,859.5C 674.667,857.5 675.333,855.5 676,853.5C 676.718,854.451 677.551,854.617 678.5,854C 677.399,851.708 678.232,850.208 681,849.5C 682.144,851.917 683.81,852.584 686,851.5C 687.167,852.667 688.333,853.833 689.5,855C 689.167,855.333 688.833,855.667 688.5,856C 690.32,856.979 691.487,858.479 692,860.5C 692.309,859.234 692.809,858.067 693.5,857C 692.09,856.632 691.09,855.799 690.5,854.5C 692.149,853.852 693.482,852.852 694.5,851.5C 693.624,850.749 692.624,850.249 691.5,850C 692.022,847.519 692.022,845.186 691.5,843C 690.833,842.667 690.167,842.333 689.5,842C 690.833,841.333 690.833,840.667 689.5,840C 690.167,839.333 690.833,839.333 691.5,840C 692.211,841.255 693.044,842.421 694,843.5C 694.626,841.009 695.459,841.009 696.5,843.5C 698.008,841.493 699.842,839.826 702,838.5C 702.595,839.899 702.428,841.232 701.5,842.5C 702.631,843.604 703.465,843.271 704,841.5C 704.359,844.544 705.026,844.878 706,842.5C 707.295,843.841 707.795,845.174 707.5,846.5C 708.72,846.113 709.387,845.28 709.5,844C 708.062,841.634 708.562,841.134 711,842.5C 713.096,841.285 712.929,840.451 710.5,840C 713.87,838.125 716.703,836.291 719,834.5C 719.72,836.112 719.554,837.612 718.5,839C 719.667,839.5 720.5,840.333 721,841.5C 721.87,840.892 722.37,840.059 722.5,839C 722.389,837.278 721.889,837.112 721,838.5C 720.333,837.5 720.333,836.5 721,835.5C 722.011,836.337 723.178,836.67 724.5,836.5C 724.649,835.448 724.483,834.448 724,833.5C 723.549,835.929 722.715,836.096 721.5,834C 722.869,831.761 722.369,829.927 720,828.5C 719.342,830.108 719.842,831.275 721.5,832C 718.267,832.048 714.934,832.381 711.5,833C 712.328,832.085 713.328,831.419 714.5,831C 711.724,829.221 712.057,828.221 715.5,828C 712.833,827 712.833,826 715.5,825C 715.167,824.667 714.833,824.333 714.5,824C 716.5,823.667 718.5,823.333 720.5,823C 719.304,822.346 719.304,821.846 720.5,821.5C 721.354,822.522 722.354,823.355 723.5,824C 723.167,824.333 722.833,824.667 722.5,825C 724.394,826.101 725.061,827.434 724.5,829C 727.809,830.362 730.809,831.529 733.5,832.5C 733.126,831.229 733.792,830.062 735.5,829C 734.318,827.322 733.152,827.488 732,829.5C 730.726,828.465 729.56,827.298 728.5,826C 729.549,825.508 730.549,825.674 731.5,826.5C 732.192,825.975 732.692,825.308 733,824.5C 734,825.833 735,825.833 736,824.5C 736.692,825.025 737.192,825.692 737.5,826.5C 736.572,827.768 736.405,829.101 737,830.5C 738.113,828.671 739.613,827.837 741.5,828C 741.167,828.333 740.833,828.667 740.5,829C 741.308,829.308 741.975,829.808 742.5,830.5C 739.972,831.517 739.972,832.684 742.5,834C 740.045,835.631 737.545,835.797 735,834.5C 734.342,836.108 734.842,837.275 736.5,838C 734.826,839.506 733.826,841.339 733.5,843.5C 734.822,843.33 735.989,843.663 737,844.5C 739.183,842.924 741.349,841.258 743.5,839.5C 744.478,839.977 745.311,840.643 746,841.5C 746.333,840.5 746.667,839.5 747,838.5C 747.667,839.833 748.333,839.833 749,838.5C 749.614,836.687 749.281,836.353 748,837.5C 745.832,836.371 745.332,834.871 746.5,833C 745.833,832.667 745.167,832.333 744.5,832C 747.221,830.349 747.554,828.682 745.5,827C 748.081,823.975 749.414,824.308 749.5,828C 752.284,828.436 753.45,829.936 753,832.5C 752.577,831.044 751.744,830.544 750.5,831C 751.833,831.667 751.833,832.333 750.5,833C 752.722,833.695 754.889,834.528 757,835.5C 758.261,835.241 759.261,834.574 760,833.5C 761.667,835.5 763.333,837.5 765,839.5C 764.762,836.938 765.762,834.604 768,832.5C 769.167,833.667 770.333,834.833 771.5,836C 769.343,837.085 769.176,838.251 771,839.5C 771.741,838.359 772.575,838.359 773.5,839.5C 774.251,838.624 774.751,837.624 775,836.5C 776.153,838.497 777.653,838.83 779.5,837.5C 778.313,836.481 777.313,835.314 776.5,834C 777.573,832.75 777.573,831.416 776.5,830C 777.805,829.807 779.139,828.807 780.5,827C 778.126,825.537 775.792,824.203 773.5,823C 774.126,822.25 774.626,821.416 775,820.5C 777,824.5 779,824.5 781,820.5C 782.951,822.137 782.784,823.637 780.5,825C 781.337,826.011 781.67,827.178 781.5,828.5C 782.552,828.351 783.552,828.517 784.5,829C 782.699,829.317 782.366,829.984 783.5,831C 781.675,832.466 781.175,834.299 782,836.5C 783.587,835.273 784.921,835.606 786,837.5C 787.049,836.483 788.216,836.316 789.5,837C 788.346,837.914 788.513,838.747 790,839.5C 790.774,837.597 790.44,835.93 789,834.5C 786.853,835.476 784.686,835.309 782.5,834C 785.003,832.78 787.669,832.447 790.5,833C 785.455,830.609 785.122,828.609 789.5,827C 789.167,826.667 788.833,826.333 788.5,826C 791.025,821.498 793.858,821.332 797,825.5C 797.085,823.915 797.251,822.582 797.5,821.5C 798.386,822.325 798.719,823.325 798.5,824.5C 802.806,825.066 803.139,825.732 799.5,826.5C 799.528,828.582 798.861,830.416 797.5,832C 797.833,832.167 798.167,832.333 798.5,832.5C 799.989,832.467 801.322,831.967 802.5,831C 801.167,830.333 801.167,829.667 802.5,829C 801.833,828.667 801.167,828.333 800.5,828C 802.061,827.682 803.228,826.849 804,825.5C 805.016,826.634 805.683,826.301 806,824.5C 806.576,827.124 807.91,827.791 810,826.5C 810.667,827.167 811.333,827.833 812,828.5C 812.082,826.297 812.916,824.131 814.5,822C 814.241,820.739 813.574,819.739 812.5,819C 813.191,817.933 813.691,816.766 814,815.5C 819.197,816.913 819.697,819.246 815.5,822.5C 815.808,823.308 816.308,823.975 817,824.5C 818.333,823.833 819.667,823.167 821,822.5C 821.333,823.833 821.667,825.167 822,826.5C 822.388,825.572 823.055,824.905 824,824.5C 825.762,824.944 825.595,825.444 823.5,826C 825.271,828.113 826.771,827.947 828,825.5C 828.503,827.615 829.836,829.615 832,831.5C 832.333,831.167 832.667,830.833 833,830.5C 832.923,831.738 833.089,832.738 833.5,833.5C 839.05,830.478 839.383,827.311 834.5,824C 838.035,822.989 841.035,820.656 843.5,817C 843.167,816.667 842.833,816.333 842.5,816C 844.44,816.178 846.107,815.178 847.5,813C 846.328,812.581 845.328,811.915 844.5,811C 844.616,809.732 844.949,808.398 845.5,807C 844.833,806.667 844.167,806.333 843.5,806C 848.396,804.29 849.396,805.624 846.5,810C 848.167,811.5 849.833,813 851.5,814.5C 854.028,813.502 854.028,812.669 851.5,812C 853.37,810.436 855.37,810.436 857.5,812C 853.721,813.11 853.554,814.61 857,816.5C 860.097,813.934 863.263,811.434 866.5,809C 866.167,808.667 865.833,808.333 865.5,808C 866.973,807.29 867.64,806.124 867.5,804.5C 868.822,804.33 869.989,804.663 871,805.5C 871.667,804.167 872.333,802.833 873,801.5C 873.667,802.833 874.333,804.167 875,805.5C 877.084,802.967 879.084,802.967 881,805.5C 881.368,804.09 882.201,803.09 883.5,802.5C 885.489,804.824 887.489,807.157 889.5,809.5C 890.308,809.192 890.975,808.692 891.5,808C 889.012,806.315 889.345,804.981 892.5,804C 891.269,802.817 891.269,801.651 892.5,800.5C 893.451,801.326 894.451,801.492 895.5,801C 894.304,800.346 894.304,799.846 895.5,799.5C 897.332,801.298 897.665,803.132 896.5,805C 898.14,807.054 899.806,807.387 901.5,806C 900.366,804.984 900.699,804.317 902.5,804C 901.167,803.667 899.833,803.333 898.5,803C 900.002,802.417 901.335,801.584 902.5,800.5C 901.965,798.729 901.131,798.396 900,799.5C 899.658,795.68 901.491,794.014 905.5,794.5C 905.421,795.93 905.754,797.264 906.5,798.5C 905.726,799.711 904.893,799.711 904,798.5C 903.333,799.5 903.333,800.5 904,801.5C 904.804,803.944 906.304,805.778 908.5,807C 908.167,807.333 907.833,807.667 907.5,808C 908.563,809.188 909.897,809.688 911.5,809.5C 911.413,812.598 911.913,812.932 913,810.5C 914.84,811.833 915.34,811.666 914.5,810C 915.448,809.517 916.448,809.351 917.5,809.5C 917.215,811.288 917.548,812.955 918.5,814.5C 918.833,814.167 919.167,813.833 919.5,813.5C 918.253,811.958 918.253,810.458 919.5,809C 917.152,807.312 916.985,805.478 919,803.5C 918.852,804.825 919.018,805.992 919.5,807C 921.527,808.879 923.86,810.046 926.5,810.5C 926.343,809.127 926.51,807.793 927,806.5C 927.333,807.167 927.667,807.833 928,808.5C 929.892,807.383 930.725,805.716 930.5,803.5C 932.346,803.778 933.68,803.111 934.5,801.5C 932.633,800.203 932.3,798.703 933.5,797C 932.268,793.61 931.434,793.777 931,797.5C 928.981,796.235 926.981,796.235 925,797.5C 924.581,798.672 923.915,799.672 923,800.5C 920.252,798.542 917.418,796.709 914.5,795C 915.448,794.517 916.448,794.351 917.5,794.5C 917.89,791.161 918.39,787.827 919,784.5C 919.333,786.167 919.667,787.833 920,789.5C 920.414,789.043 920.914,788.709 921.5,788.5C 922.114,792.07 923.448,792.403 925.5,789.5C 924.391,788.035 924.891,787.035 927,786.5C 928.714,787.925 930.047,787.592 931,785.5C 931.815,787.623 932.815,789.623 934,791.5C 934.333,791.167 934.667,790.833 935,790.5C 937.149,791.652 938.982,793.152 940.5,795C 939.044,795.423 938.544,796.256 939,797.5C 939.333,797.167 939.667,796.833 940,796.5C 940.862,798.087 941.529,799.754 942,801.5C 942.718,800.549 943.551,800.383 944.5,801C 943.483,802.049 943.316,803.216 944,804.5C 944.667,803.167 945.333,803.167 946,804.5C 947.307,799.992 949.64,798.992 953,801.5C 955.109,800.965 955.609,799.965 954.5,798.5C 957.529,796.971 959.695,794.638 961,791.5C 963.2,792.548 963.7,794.048 962.5,796C 963.825,795.852 964.992,796.018 966,796.5C 968.078,794.615 970.245,793.949 972.5,794.5C 969.904,792.95 968.904,790.95 969.5,788.5C 972.706,792.264 975.206,791.598 977,786.5C 978.786,788.674 980.953,789.84 983.5,790C 981.431,789.676 981.098,788.842 982.5,787.5C 980.518,786.784 978.851,785.617 977.5,784C 979.221,782.563 980.721,783.063 982,785.5C 982.772,784.151 983.939,783.318 985.5,783C 986.654,782.086 986.487,781.253 985,780.5C 982.941,780.446 980.774,780.613 978.5,781C 981.182,778.83 984.182,777.33 987.5,776.5C 990.742,776.783 991.076,777.617 988.5,779C 989.552,780.119 990.719,780.619 992,780.5C 992.684,781.784 992.517,782.951 991.5,784C 992.672,784.419 993.672,785.085 994.5,786C 995.784,786.684 996.951,786.517 998,785.5C 998.851,788.612 1000.02,788.946 1001.5,786.5C 1002.52,789.028 1003.68,789.028 1005,786.5C 1006.64,788.955 1008.14,791.455 1009.5,794C 1008.92,794.893 1008.59,795.893 1008.5,797C 1009.53,801.5 1011.2,801.667 1013.5,797.5C 1011.51,796.419 1010.01,794.419 1009,791.5C 1009.11,788.557 1010.78,786.891 1014,786.5C 1016.08,788.225 1018.25,788.892 1020.5,788.5C 1021.42,786.415 1022.42,784.415 1023.5,782.5 Z"/></g>
</g>
</svg>
